<svg width="393" height="852" viewBox="0 0 393 852" fill="none" xmlns="http://www.w3.org/2000/svg">
<g clip-path="url(#clip0_31_5581)">
<rect width="393" height="852" rx="32" fill="white"/>
<path d="M43.3638 19.4673C43.9554 19.4714 44.531 19.576 45.0904 19.7812C45.6538 19.9825 46.1609 20.3125 46.6117 20.7713C47.0624 21.2261 47.4206 21.8358 47.6863 22.6005C47.9519 23.3652 48.0847 24.311 48.0847 25.4379C48.0887 26.5004 47.976 27.4502 47.7466 28.2873C47.5213 29.1204 47.1973 29.8247 46.7747 30.4002C46.3521 30.9757 45.843 31.4144 45.2473 31.7163C44.6517 32.0181 43.9816 32.169 43.237 32.169C42.4563 32.169 41.764 32.0161 41.1603 31.7102C40.5607 31.4044 40.0757 30.9858 39.7054 30.4545C39.3352 29.9233 39.1078 29.3156 39.0233 28.6314H41.2267C41.3394 29.1224 41.5688 29.5128 41.915 29.8026C42.2651 30.0883 42.7058 30.2312 43.237 30.2312C44.0943 30.2312 44.7543 29.8589 45.2172 29.1143C45.68 28.3698 45.9114 27.3355 45.9114 26.0114H45.8269C45.6297 26.3655 45.3741 26.6714 45.0602 26.929C44.7463 27.1825 44.3901 27.3777 43.9917 27.5146C43.5972 27.6514 43.1787 27.7198 42.736 27.7198C42.0115 27.7198 41.3596 27.5468 40.78 27.2006C40.2045 26.8545 39.7477 26.3796 39.4096 25.7759C39.0756 25.1722 38.9066 24.482 38.9025 23.7053C38.9025 22.9003 39.0877 22.1779 39.4579 21.538C39.8322 20.8941 40.3534 20.387 41.0215 20.0167C41.6896 19.6424 42.4704 19.4593 43.3638 19.4673ZM43.3699 21.2784C42.9352 21.2784 42.5428 21.3851 42.1927 21.5984C41.8465 21.8076 41.5729 22.0934 41.3716 22.4556C41.1744 22.8138 41.0758 23.2143 41.0758 23.657C41.0798 24.0956 41.1785 24.4941 41.3716 24.8523C41.5688 25.2105 41.8365 25.4942 42.1745 25.7035C42.5166 25.9128 42.907 26.0174 43.3457 26.0174C43.6717 26.0174 43.9756 25.955 44.2573 25.8303C44.539 25.7055 44.7845 25.5324 44.9938 25.3111C45.2071 25.0857 45.3721 24.8301 45.4888 24.5444C45.6096 24.2586 45.6679 23.9568 45.6639 23.6388C45.6639 23.2163 45.5633 22.8259 45.362 22.4677C45.1648 22.1095 44.8932 21.8217 44.5471 21.6044C44.205 21.3871 43.8126 21.2784 43.3699 21.2784ZM51.0574 30.5149C50.6911 30.5149 50.3772 30.3861 50.1156 30.1286C49.854 29.867 49.7252 29.553 49.7293 29.1868C49.7252 28.8246 49.854 28.5147 50.1156 28.2571C50.3772 27.9995 50.6911 27.8707 51.0574 27.8707C51.4115 27.8707 51.7194 27.9995 51.981 28.2571C52.2467 28.5147 52.3815 28.8246 52.3855 29.1868C52.3815 29.4323 52.3171 29.6557 52.1923 29.8569C52.0716 30.0581 51.9106 30.2191 51.7094 30.3398C51.5122 30.4566 51.2948 30.5149 51.0574 30.5149ZM51.0574 24.3874C50.6911 24.3874 50.3772 24.2586 50.1156 24.0011C49.854 23.7395 49.7252 23.4255 49.7293 23.0593C49.7252 22.6971 49.854 22.3872 50.1156 22.1296C50.3772 21.868 50.6911 21.7372 51.0574 21.7372C51.4115 21.7372 51.7194 21.868 51.981 22.1296C52.2467 22.3872 52.3815 22.6971 52.3855 23.0593C52.3815 23.3008 52.3171 23.5221 52.1923 23.7234C52.0716 23.9246 51.9106 24.0856 51.7094 24.2063C51.5122 24.3271 51.2948 24.3874 51.0574 24.3874ZM53.9863 29.706V27.9251L59.2324 19.6364H60.7175V22.1719H59.8119L56.2803 27.7681V27.8647H63.6031V29.706H53.9863ZM59.8844 32V29.1626L59.9085 28.3658V19.6364H62.0215V32H59.8844ZM69.9867 19.6364V32H67.747V21.8157H67.6745L64.7828 23.663V21.6104L67.8556 19.6364H69.9867Z" fill="#010101"/>
<path opacity="0.35" d="M339.528 23C339.528 21.0822 341.082 19.5275 343 19.5275H360C361.918 19.5275 363.472 21.0822 363.472 23V28C363.472 29.9178 361.918 31.4725 360 31.4725H343C341.082 31.4725 339.528 29.9178 339.528 28V23Z" stroke="black" stroke-width="1.05509"/>
<path opacity="0.4" d="M365 24V28.2203C365.849 27.8629 366.401 27.0314 366.401 26.1102C366.401 25.1889 365.849 24.3574 365 24Z" fill="black"/>
<path d="M341 23C341 21.8954 341.895 21 343 21H360C361.105 21 362 21.8954 362 23V28C362 29.1046 361.105 30 360 30H343C341.895 30 341 29.1046 341 28V23Z" fill="black"/>
<path fill-rule="evenodd" clip-rule="evenodd" d="M323.5 22.5875C325.967 22.5876 328.339 23.5551 330.127 25.2898C330.261 25.4237 330.477 25.4221 330.609 25.286L331.896 23.9605C331.963 23.8915 332.001 23.798 332 23.7008C331.999 23.6035 331.961 23.5105 331.893 23.4423C327.201 18.8526 319.799 18.8526 315.107 23.4423C315.039 23.5105 315.001 23.6034 315 23.7007C314.999 23.7979 315.037 23.8914 315.104 23.9605L316.391 25.286C316.523 25.4223 316.739 25.424 316.873 25.2898C318.661 23.5549 321.034 22.5875 323.5 22.5875ZM323.536 26.6724C324.891 26.6723 326.198 27.1864 327.203 28.115C327.338 28.2467 327.552 28.2439 327.685 28.1085L328.97 26.7829C329.038 26.7134 329.075 26.6191 329.074 26.5211C329.073 26.4231 329.034 26.3295 328.965 26.2614C325.906 23.3568 321.169 23.3568 318.109 26.2614C318.04 26.3295 318.001 26.4231 318 26.5212C317.999 26.6192 318.037 26.7135 318.105 26.7829L319.39 28.1085C319.522 28.2439 319.736 28.2467 319.872 28.115C320.876 27.1871 322.182 26.6729 323.536 26.6724ZM326.15 29.3427C326.152 29.441 326.114 29.5357 326.045 29.6046L323.822 31.8948C323.756 31.9621 323.668 32 323.575 32C323.482 32 323.393 31.9621 323.328 31.8948L321.105 29.6046C321.036 29.5357 320.998 29.4409 321 29.3426C321.002 29.2443 321.044 29.1512 321.115 29.0853C322.535 27.8595 324.615 27.8595 326.035 29.0853C326.106 29.1513 326.148 29.2444 326.15 29.3427Z" fill="black"/>
<path d="M299 23C299 22.4477 299.448 22 300 22H301C301.552 22 302 22.4477 302 23V31C302 31.5523 301.552 32 301 32H300C299.448 32 299 31.5523 299 31V23Z" fill="black"/>
<path d="M304 21C304 20.4477 304.448 20 305 20H306C306.552 20 307 20.4477 307 21V31C307 31.5523 306.552 32 306 32H305C304.448 32 304 31.5523 304 31V21Z" fill="black"/>
<path d="M294 26.5C294 25.9477 294.448 25.5 295 25.5H296C296.552 25.5 297 25.9477 297 26.5V31C297 31.5523 296.552 32 296 32H295C294.448 32 294 31.5523 294 31V26.5Z" fill="black"/>
<path d="M289 29C289 28.4477 289.448 28 290 28H291C291.552 28 292 28.4477 292 29V31C292 31.5523 291.552 32 291 32H290C289.448 32 289 31.5523 289 31V29Z" fill="black"/>
<rect x="130" y="839" width="134" height="5" rx="2.5" fill="black"/>
<path d="M142.191 215.455H144.684L148.483 222.067H148.64L152.439 215.455H154.932L149.655 224.29V230H147.468V224.29L142.191 215.455ZM159.632 230.22C158.609 230.22 157.717 229.986 156.955 229.517C156.192 229.048 155.6 228.393 155.179 227.55C154.758 226.707 154.547 225.722 154.547 224.595C154.547 223.464 154.758 222.474 155.179 221.626C155.6 220.779 156.192 220.121 156.955 219.652C157.717 219.183 158.609 218.949 159.632 218.949C160.655 218.949 161.547 219.183 162.31 219.652C163.072 220.121 163.664 220.779 164.085 221.626C164.507 222.474 164.717 223.464 164.717 224.595C164.717 225.722 164.507 226.707 164.085 227.55C163.664 228.393 163.072 229.048 162.31 229.517C161.547 229.986 160.655 230.22 159.632 230.22ZM159.639 228.438C160.302 228.438 160.851 228.262 161.287 227.912C161.723 227.562 162.045 227.095 162.253 226.513C162.466 225.93 162.572 225.289 162.572 224.588C162.572 223.892 162.466 223.253 162.253 222.67C162.045 222.083 161.723 221.612 161.287 221.257C160.851 220.902 160.302 220.724 159.639 220.724C158.972 220.724 158.418 220.902 157.977 221.257C157.542 221.612 157.217 222.083 157.004 222.67C156.796 223.253 156.692 223.892 156.692 224.588C156.692 225.289 156.796 225.93 157.004 226.513C157.217 227.095 157.542 227.562 157.977 227.912C158.418 228.262 158.972 228.438 159.639 228.438ZM173.998 225.476V219.091H176.129V230H174.041V228.111H173.927C173.676 228.693 173.274 229.179 172.72 229.567C172.171 229.95 171.486 230.142 170.667 230.142C169.967 230.142 169.346 229.988 168.806 229.68C168.271 229.368 167.85 228.906 167.542 228.295C167.239 227.685 167.088 226.929 167.088 226.03V219.091H169.211V225.774C169.211 226.518 169.417 227.109 169.829 227.55C170.241 227.99 170.776 228.21 171.434 228.21C171.832 228.21 172.227 228.111 172.62 227.912C173.018 227.713 173.347 227.412 173.608 227.01C173.873 226.607 174.003 226.096 173.998 225.476ZM178.982 230V219.091H181.035V220.824H181.148C181.347 220.237 181.698 219.775 182.2 219.439C182.706 219.098 183.279 218.928 183.918 218.928C184.051 218.928 184.207 218.932 184.387 218.942C184.572 218.951 184.716 218.963 184.82 218.977V221.009C184.735 220.985 184.584 220.959 184.366 220.93C184.148 220.897 183.93 220.881 183.712 220.881C183.21 220.881 182.763 220.987 182.37 221.2C181.982 221.409 181.674 221.7 181.447 222.074C181.219 222.443 181.106 222.865 181.106 223.338V230H178.982ZM191.951 234.091V219.091H194.025V220.859H194.202C194.326 220.632 194.503 220.369 194.735 220.071C194.967 219.773 195.289 219.512 195.701 219.29C196.113 219.062 196.657 218.949 197.335 218.949C198.215 218.949 199.001 219.171 199.692 219.616C200.384 220.062 200.926 220.703 201.319 221.541C201.717 222.379 201.915 223.388 201.915 224.567C201.915 225.746 201.719 226.757 201.326 227.599C200.933 228.437 200.393 229.084 199.707 229.538C199.02 229.988 198.237 230.213 197.356 230.213C196.693 230.213 196.151 230.102 195.729 229.879C195.313 229.657 194.986 229.396 194.749 229.098C194.513 228.8 194.33 228.535 194.202 228.303H194.075V234.091H191.951ZM194.032 224.545C194.032 225.312 194.143 225.985 194.366 226.562C194.588 227.14 194.91 227.592 195.332 227.919C195.753 228.241 196.269 228.402 196.88 228.402C197.514 228.402 198.045 228.234 198.471 227.898C198.897 227.557 199.219 227.095 199.437 226.513C199.659 225.93 199.771 225.275 199.771 224.545C199.771 223.826 199.662 223.179 199.444 222.607C199.231 222.034 198.909 221.581 198.478 221.25C198.052 220.919 197.519 220.753 196.88 220.753C196.264 220.753 195.744 220.911 195.317 221.229C194.896 221.546 194.576 221.989 194.359 222.557C194.141 223.125 194.032 223.788 194.032 224.545ZM204.295 230V219.091H206.347V220.824H206.461C206.66 220.237 207.01 219.775 207.512 219.439C208.019 219.098 208.592 218.928 209.231 218.928C209.363 218.928 209.52 218.932 209.7 218.942C209.884 218.951 210.029 218.963 210.133 218.977V221.009C210.048 220.985 209.896 220.959 209.678 220.93C209.46 220.897 209.243 220.881 209.025 220.881C208.523 220.881 208.076 220.987 207.683 221.2C207.294 221.409 206.987 221.7 206.759 222.074C206.532 222.443 206.418 222.865 206.418 223.338V230H204.295ZM216.175 230.22C215.152 230.22 214.26 229.986 213.498 229.517C212.735 229.048 212.143 228.393 211.722 227.55C211.301 226.707 211.09 225.722 211.09 224.595C211.09 223.464 211.301 222.474 211.722 221.626C212.143 220.779 212.735 220.121 213.498 219.652C214.26 219.183 215.152 218.949 216.175 218.949C217.198 218.949 218.09 219.183 218.853 219.652C219.615 220.121 220.207 220.779 220.628 221.626C221.05 222.474 221.26 223.464 221.26 224.595C221.26 225.722 221.05 226.707 220.628 227.55C220.207 228.393 219.615 229.048 218.853 229.517C218.09 229.986 217.198 230.22 216.175 230.22ZM216.182 228.438C216.845 228.438 217.394 228.262 217.83 227.912C218.266 227.562 218.587 227.095 218.796 226.513C219.009 225.93 219.115 225.289 219.115 224.588C219.115 223.892 219.009 223.253 218.796 222.67C218.587 222.083 218.266 221.612 217.83 221.257C217.394 220.902 216.845 220.724 216.182 220.724C215.515 220.724 214.961 220.902 214.52 221.257C214.085 221.612 213.76 222.083 213.547 222.67C213.339 223.253 213.235 223.892 213.235 224.588C213.235 225.289 213.339 225.93 213.547 226.513C213.76 227.095 214.085 227.562 214.52 227.912C214.961 228.262 215.515 228.438 216.182 228.438ZM228.822 219.091V220.795H222.658V219.091H228.822ZM224.348 230V217.827C224.348 217.145 224.497 216.579 224.795 216.129C225.094 215.675 225.489 215.336 225.982 215.114C226.474 214.886 227.009 214.773 227.587 214.773C228.013 214.773 228.377 214.808 228.68 214.879C228.983 214.946 229.208 215.007 229.355 215.064L228.858 216.783C228.759 216.754 228.631 216.721 228.474 216.683C228.318 216.641 228.129 216.619 227.906 216.619C227.39 216.619 227.021 216.747 226.798 217.003C226.58 217.259 226.472 217.628 226.472 218.111V230H224.348ZM231.013 230V219.091H233.137V230H231.013ZM232.086 217.408C231.717 217.408 231.399 217.285 231.134 217.038C230.874 216.787 230.744 216.489 230.744 216.143C230.744 215.793 230.874 215.495 231.134 215.249C231.399 214.998 231.717 214.872 232.086 214.872C232.455 214.872 232.77 214.998 233.031 215.249C233.296 215.495 233.428 215.793 233.428 216.143C233.428 216.489 233.296 216.787 233.031 217.038C232.77 217.285 232.455 217.408 232.086 217.408ZM238.118 215.455V230H235.994V215.455H238.118ZM245.676 230.22C244.601 230.22 243.676 229.991 242.899 229.531C242.127 229.067 241.531 228.416 241.109 227.578C240.693 226.735 240.484 225.748 240.484 224.616C240.484 223.499 240.693 222.514 241.109 221.662C241.531 220.81 242.118 220.144 242.871 219.666C243.628 219.188 244.514 218.949 245.527 218.949C246.143 218.949 246.739 219.051 247.317 219.254C247.894 219.458 248.413 219.777 248.872 220.213C249.331 220.649 249.694 221.214 249.959 221.911C250.224 222.602 250.357 223.442 250.357 224.432V225.185H241.685V223.594H248.276C248.276 223.035 248.162 222.54 247.935 222.109C247.707 221.674 247.388 221.33 246.976 221.08C246.569 220.829 246.09 220.703 245.541 220.703C244.945 220.703 244.424 220.85 243.979 221.143C243.538 221.432 243.197 221.811 242.956 222.28C242.719 222.744 242.601 223.248 242.601 223.793V225.036C242.601 225.765 242.729 226.385 242.984 226.896C243.245 227.408 243.607 227.798 244.071 228.068C244.535 228.333 245.077 228.466 245.697 228.466C246.1 228.466 246.467 228.409 246.798 228.295C247.13 228.177 247.416 228.002 247.658 227.77C247.899 227.538 248.084 227.251 248.212 226.911L250.222 227.273C250.061 227.865 249.772 228.383 249.355 228.828C248.943 229.268 248.425 229.612 247.8 229.858C247.179 230.099 246.472 230.22 245.676 230.22Z" fill="black"/>
<path d="M92.0447 250.364V262H90.6357V250.364H92.0447ZM96.0291 256.75V262H94.6882V253.273H95.9837V254.636H96.0973C96.3018 254.193 96.6125 253.837 97.0291 253.568C97.4458 253.295 97.9837 253.159 98.6428 253.159C99.2337 253.159 99.7507 253.28 100.194 253.523C100.637 253.761 100.982 254.125 101.228 254.614C101.474 255.098 101.597 255.712 101.597 256.455V262H100.256V256.545C100.256 255.86 100.078 255.326 99.7223 254.943C99.3662 254.557 98.8776 254.364 98.2564 254.364C97.8284 254.364 97.4458 254.456 97.1087 254.642C96.7753 254.828 96.5121 255.098 96.3189 255.455C96.1257 255.811 96.0291 256.242 96.0291 256.75ZM107.843 253.273V254.409H103.32V253.273H107.843ZM104.638 251.182H105.979V259.5C105.979 259.879 106.034 260.163 106.144 260.352C106.258 260.538 106.402 260.663 106.576 260.727C106.754 260.788 106.942 260.818 107.138 260.818C107.286 260.818 107.407 260.811 107.502 260.795C107.597 260.777 107.673 260.761 107.729 260.75L108.002 261.955C107.911 261.989 107.784 262.023 107.621 262.057C107.459 262.095 107.252 262.114 107.002 262.114C106.623 262.114 106.252 262.032 105.888 261.869C105.529 261.706 105.229 261.458 104.991 261.125C104.756 260.792 104.638 260.371 104.638 259.864V251.182ZM109.86 262V253.273H111.156V254.591H111.246C111.406 254.159 111.693 253.809 112.11 253.54C112.527 253.271 112.996 253.136 113.519 253.136C113.618 253.136 113.741 253.138 113.888 253.142C114.036 253.146 114.148 253.152 114.224 253.159V254.523C114.178 254.511 114.074 254.494 113.911 254.472C113.752 254.445 113.584 254.432 113.406 254.432C112.981 254.432 112.603 254.521 112.269 254.699C111.94 254.873 111.678 255.116 111.485 255.426C111.296 255.733 111.201 256.083 111.201 256.477V262H109.86ZM119.093 262.182C118.305 262.182 117.614 261.994 117.019 261.619C116.428 261.244 115.966 260.72 115.633 260.045C115.303 259.371 115.138 258.583 115.138 257.682C115.138 256.773 115.303 255.979 115.633 255.301C115.966 254.623 116.428 254.097 117.019 253.722C117.614 253.347 118.305 253.159 119.093 253.159C119.881 253.159 120.57 253.347 121.161 253.722C121.756 254.097 122.218 254.623 122.548 255.301C122.881 255.979 123.048 256.773 123.048 257.682C123.048 258.583 122.881 259.371 122.548 260.045C122.218 260.72 121.756 261.244 121.161 261.619C120.57 261.994 119.881 262.182 119.093 262.182ZM119.093 260.977C119.692 260.977 120.184 260.824 120.57 260.517C120.957 260.21 121.243 259.807 121.428 259.307C121.614 258.807 121.707 258.265 121.707 257.682C121.707 257.098 121.614 256.555 121.428 256.051C121.243 255.547 120.957 255.14 120.57 254.83C120.184 254.519 119.692 254.364 119.093 254.364C118.495 254.364 118.002 254.519 117.616 254.83C117.229 255.14 116.943 255.547 116.758 256.051C116.572 256.555 116.479 257.098 116.479 257.682C116.479 258.265 116.572 258.807 116.758 259.307C116.943 259.807 117.229 260.21 117.616 260.517C118.002 260.824 118.495 260.977 119.093 260.977ZM128.39 262.182C127.663 262.182 127.021 261.998 126.464 261.631C125.907 261.259 125.471 260.737 125.157 260.062C124.843 259.384 124.685 258.583 124.685 257.659C124.685 256.742 124.843 255.947 125.157 255.273C125.471 254.598 125.909 254.078 126.469 253.71C127.03 253.343 127.678 253.159 128.413 253.159C128.981 253.159 129.43 253.254 129.759 253.443C130.093 253.629 130.346 253.841 130.521 254.08C130.699 254.314 130.837 254.508 130.935 254.659H131.049V250.364H132.39V262H131.094V260.659H130.935C130.837 260.818 130.697 261.019 130.515 261.261C130.333 261.5 130.074 261.714 129.737 261.903C129.399 262.089 128.951 262.182 128.39 262.182ZM128.572 260.977C129.11 260.977 129.564 260.837 129.935 260.557C130.307 260.273 130.589 259.881 130.782 259.381C130.975 258.877 131.072 258.295 131.072 257.636C131.072 256.985 130.977 256.415 130.788 255.926C130.598 255.434 130.318 255.051 129.947 254.778C129.576 254.502 129.117 254.364 128.572 254.364C128.004 254.364 127.53 254.509 127.151 254.801C126.776 255.089 126.494 255.481 126.305 255.977C126.119 256.47 126.026 257.023 126.026 257.636C126.026 258.258 126.121 258.822 126.31 259.33C126.504 259.833 126.788 260.235 127.163 260.534C127.541 260.83 128.011 260.977 128.572 260.977ZM140.532 258.432V253.273H141.873V262H140.532V260.523H140.441C140.237 260.966 139.918 261.343 139.487 261.653C139.055 261.96 138.509 262.114 137.85 262.114C137.305 262.114 136.82 261.994 136.396 261.756C135.971 261.513 135.638 261.15 135.396 260.665C135.153 260.176 135.032 259.561 135.032 258.818V253.273H136.373V258.727C136.373 259.364 136.551 259.871 136.907 260.25C137.267 260.629 137.725 260.818 138.282 260.818C138.615 260.818 138.954 260.733 139.299 260.562C139.647 260.392 139.939 260.131 140.174 259.778C140.413 259.426 140.532 258.977 140.532 258.432ZM147.874 262.182C147.056 262.182 146.352 261.989 145.761 261.602C145.17 261.216 144.715 260.684 144.397 260.006C144.079 259.328 143.92 258.553 143.92 257.682C143.92 256.795 144.083 256.013 144.408 255.335C144.738 254.653 145.196 254.121 145.783 253.739C146.374 253.352 147.064 253.159 147.852 253.159C148.465 253.159 149.018 253.273 149.511 253.5C150.003 253.727 150.406 254.045 150.721 254.455C151.035 254.864 151.23 255.341 151.306 255.886H149.965C149.863 255.489 149.636 255.136 149.283 254.83C148.935 254.519 148.465 254.364 147.874 254.364C147.352 254.364 146.893 254.5 146.499 254.773C146.109 255.042 145.804 255.422 145.585 255.915C145.369 256.403 145.261 256.977 145.261 257.636C145.261 258.311 145.367 258.898 145.579 259.398C145.795 259.898 146.098 260.286 146.488 260.562C146.882 260.839 147.344 260.977 147.874 260.977C148.223 260.977 148.539 260.917 148.823 260.795C149.107 260.674 149.348 260.5 149.545 260.273C149.742 260.045 149.882 259.773 149.965 259.455H151.306C151.23 259.97 151.043 260.434 150.744 260.847C150.448 261.256 150.056 261.581 149.567 261.824C149.083 262.062 148.518 262.182 147.874 262.182ZM156.925 262.182C156.085 262.182 155.359 261.996 154.749 261.625C154.143 261.25 153.675 260.727 153.346 260.057C153.02 259.383 152.857 258.598 152.857 257.705C152.857 256.811 153.02 256.023 153.346 255.341C153.675 254.655 154.134 254.121 154.721 253.739C155.312 253.352 156.001 253.159 156.789 253.159C157.244 253.159 157.692 253.235 158.136 253.386C158.579 253.538 158.982 253.784 159.346 254.125C159.71 254.462 159.999 254.909 160.215 255.466C160.431 256.023 160.539 256.708 160.539 257.523V258.091H153.812V256.932H159.175C159.175 256.439 159.077 256 158.88 255.614C158.687 255.227 158.41 254.922 158.05 254.699C157.694 254.475 157.274 254.364 156.789 254.364C156.255 254.364 155.793 254.496 155.403 254.761C155.016 255.023 154.719 255.364 154.511 255.784C154.302 256.205 154.198 256.655 154.198 257.136V257.909C154.198 258.568 154.312 259.127 154.539 259.585C154.77 260.04 155.09 260.386 155.499 260.625C155.908 260.86 156.384 260.977 156.925 260.977C157.278 260.977 157.596 260.928 157.88 260.83C158.168 260.727 158.416 260.576 158.624 260.375C158.833 260.17 158.994 259.917 159.107 259.614L160.403 259.977C160.266 260.417 160.037 260.803 159.715 261.136C159.393 261.466 158.996 261.723 158.522 261.909C158.049 262.091 157.516 262.182 156.925 262.182ZM167.942 265.273C167.715 265.273 167.513 265.254 167.335 265.216C167.156 265.182 167.033 265.148 166.965 265.114L167.306 263.932C167.632 264.015 167.92 264.045 168.17 264.023C168.42 264 168.641 263.888 168.835 263.688C169.031 263.491 169.211 263.17 169.374 262.727L169.624 262.045L166.397 253.273H167.852L170.261 260.227H170.352L172.761 253.273H174.215L170.511 263.273C170.344 263.723 170.138 264.097 169.891 264.392C169.645 264.691 169.359 264.913 169.033 265.057C168.711 265.201 168.348 265.273 167.942 265.273ZM179.218 262.182C178.43 262.182 177.739 261.994 177.144 261.619C176.553 261.244 176.091 260.72 175.758 260.045C175.428 259.371 175.263 258.583 175.263 257.682C175.263 256.773 175.428 255.979 175.758 255.301C176.091 254.623 176.553 254.097 177.144 253.722C177.739 253.347 178.43 253.159 179.218 253.159C180.006 253.159 180.695 253.347 181.286 253.722C181.881 254.097 182.343 254.623 182.673 255.301C183.006 255.979 183.173 256.773 183.173 257.682C183.173 258.583 183.006 259.371 182.673 260.045C182.343 260.72 181.881 261.244 181.286 261.619C180.695 261.994 180.006 262.182 179.218 262.182ZM179.218 260.977C179.817 260.977 180.309 260.824 180.695 260.517C181.082 260.21 181.368 259.807 181.553 259.307C181.739 258.807 181.832 258.265 181.832 257.682C181.832 257.098 181.739 256.555 181.553 256.051C181.368 255.547 181.082 255.14 180.695 254.83C180.309 254.519 179.817 254.364 179.218 254.364C178.62 254.364 178.127 254.519 177.741 254.83C177.354 255.14 177.068 255.547 176.883 256.051C176.697 256.555 176.604 257.098 176.604 257.682C176.604 258.265 176.697 258.807 176.883 259.307C177.068 259.807 177.354 260.21 177.741 260.517C178.127 260.824 178.62 260.977 179.218 260.977ZM190.719 258.432V253.273H192.06V262H190.719V260.523H190.629C190.424 260.966 190.106 261.343 189.674 261.653C189.242 261.96 188.697 262.114 188.038 262.114C187.492 262.114 187.007 261.994 186.583 261.756C186.159 261.513 185.826 261.15 185.583 260.665C185.341 260.176 185.219 259.561 185.219 258.818V253.273H186.56V258.727C186.56 259.364 186.738 259.871 187.094 260.25C187.454 260.629 187.913 260.818 188.469 260.818C188.803 260.818 189.142 260.733 189.487 260.562C189.835 260.392 190.127 260.131 190.362 259.778C190.6 259.426 190.719 258.977 190.719 258.432ZM194.516 262V253.273H195.812V254.591H195.903C196.062 254.159 196.35 253.809 196.766 253.54C197.183 253.271 197.653 253.136 198.175 253.136C198.274 253.136 198.397 253.138 198.545 253.142C198.692 253.146 198.804 253.152 198.88 253.159V254.523C198.835 254.511 198.73 254.494 198.567 254.472C198.408 254.445 198.24 254.432 198.062 254.432C197.638 254.432 197.259 254.521 196.925 254.699C196.596 254.873 196.335 255.116 196.141 255.426C195.952 255.733 195.857 256.083 195.857 256.477V262H194.516ZM206.651 255.227L205.447 255.568C205.371 255.367 205.259 255.172 205.112 254.983C204.968 254.79 204.771 254.631 204.521 254.506C204.271 254.381 203.951 254.318 203.56 254.318C203.026 254.318 202.581 254.441 202.225 254.688C201.873 254.93 201.697 255.239 201.697 255.614C201.697 255.947 201.818 256.21 202.06 256.403C202.303 256.597 202.682 256.758 203.197 256.886L204.492 257.205C205.272 257.394 205.854 257.684 206.237 258.074C206.619 258.46 206.81 258.958 206.81 259.568C206.81 260.068 206.666 260.515 206.379 260.909C206.094 261.303 205.697 261.614 205.185 261.841C204.674 262.068 204.079 262.182 203.401 262.182C202.511 262.182 201.774 261.989 201.191 261.602C200.608 261.216 200.238 260.652 200.083 259.909L201.356 259.591C201.477 260.061 201.706 260.413 202.043 260.648C202.384 260.883 202.829 261 203.379 261C204.004 261 204.5 260.867 204.867 260.602C205.238 260.333 205.424 260.011 205.424 259.636C205.424 259.333 205.318 259.08 205.106 258.875C204.894 258.667 204.568 258.511 204.129 258.409L202.674 258.068C201.875 257.879 201.288 257.585 200.913 257.188C200.541 256.786 200.356 256.284 200.356 255.682C200.356 255.189 200.494 254.754 200.771 254.375C201.051 253.996 201.432 253.699 201.913 253.483C202.397 253.267 202.947 253.159 203.56 253.159C204.424 253.159 205.102 253.348 205.594 253.727C206.091 254.106 206.443 254.606 206.651 255.227ZM212.488 262.182C211.647 262.182 210.922 261.996 210.312 261.625C209.706 261.25 209.238 260.727 208.908 260.057C208.583 259.383 208.42 258.598 208.42 257.705C208.42 256.811 208.583 256.023 208.908 255.341C209.238 254.655 209.696 254.121 210.283 253.739C210.874 253.352 211.564 253.159 212.352 253.159C212.806 253.159 213.255 253.235 213.698 253.386C214.141 253.538 214.545 253.784 214.908 254.125C215.272 254.462 215.562 254.909 215.778 255.466C215.994 256.023 216.102 256.708 216.102 257.523V258.091H209.374V256.932H214.738C214.738 256.439 214.639 256 214.442 255.614C214.249 255.227 213.973 254.922 213.613 254.699C213.257 254.475 212.836 254.364 212.352 254.364C211.817 254.364 211.355 254.496 210.965 254.761C210.579 255.023 210.281 255.364 210.073 255.784C209.865 256.205 209.761 256.655 209.761 257.136V257.909C209.761 258.568 209.874 259.127 210.102 259.585C210.333 260.04 210.653 260.386 211.062 260.625C211.471 260.86 211.946 260.977 212.488 260.977C212.84 260.977 213.158 260.928 213.442 260.83C213.73 260.727 213.978 260.576 214.187 260.375C214.395 260.17 214.556 259.917 214.67 259.614L215.965 259.977C215.829 260.417 215.6 260.803 215.278 261.136C214.956 261.466 214.558 261.723 214.085 261.909C213.611 262.091 213.079 262.182 212.488 262.182ZM219.482 250.364V262H218.141V250.364H219.482ZM225.825 253.273V254.409H221.12V253.273H225.825ZM222.529 262V252.068C222.529 251.568 222.647 251.152 222.881 250.818C223.116 250.485 223.421 250.235 223.796 250.068C224.171 249.902 224.567 249.818 224.984 249.818C225.313 249.818 225.582 249.845 225.79 249.898C225.999 249.951 226.154 250 226.256 250.045L225.87 251.205C225.802 251.182 225.707 251.153 225.586 251.119C225.469 251.085 225.313 251.068 225.12 251.068C224.677 251.068 224.357 251.18 224.16 251.403C223.967 251.627 223.87 251.955 223.87 252.386V262H222.529ZM235.999 253.273V254.409H231.477V253.273H235.999ZM232.795 251.182H234.136V259.5C234.136 259.879 234.191 260.163 234.3 260.352C234.414 260.538 234.558 260.663 234.732 260.727C234.91 260.788 235.098 260.818 235.295 260.818C235.442 260.818 235.564 260.811 235.658 260.795C235.753 260.777 235.829 260.761 235.886 260.75L236.158 261.955C236.067 261.989 235.941 262.023 235.778 262.057C235.615 262.095 235.408 262.114 235.158 262.114C234.78 262.114 234.408 262.032 234.045 261.869C233.685 261.706 233.386 261.458 233.147 261.125C232.912 260.792 232.795 260.371 232.795 259.864V251.182ZM241.468 262.182C240.68 262.182 239.989 261.994 239.394 261.619C238.803 261.244 238.341 260.72 238.008 260.045C237.678 259.371 237.513 258.583 237.513 257.682C237.513 256.773 237.678 255.979 238.008 255.301C238.341 254.623 238.803 254.097 239.394 253.722C239.989 253.347 240.68 253.159 241.468 253.159C242.256 253.159 242.945 253.347 243.536 253.722C244.131 254.097 244.593 254.623 244.923 255.301C245.256 255.979 245.423 256.773 245.423 257.682C245.423 258.583 245.256 259.371 244.923 260.045C244.593 260.72 244.131 261.244 243.536 261.619C242.945 261.994 242.256 262.182 241.468 262.182ZM241.468 260.977C242.067 260.977 242.559 260.824 242.945 260.517C243.332 260.21 243.618 259.807 243.803 259.307C243.989 258.807 244.082 258.265 244.082 257.682C244.082 257.098 243.989 256.555 243.803 256.051C243.618 255.547 243.332 255.14 242.945 254.83C242.559 254.519 242.067 254.364 241.468 254.364C240.87 254.364 240.377 254.519 239.991 254.83C239.604 255.14 239.318 255.547 239.133 256.051C238.947 256.555 238.854 257.098 238.854 257.682C238.854 258.265 238.947 258.807 239.133 259.307C239.318 259.807 239.604 260.21 239.991 260.517C240.377 260.824 240.87 260.977 241.468 260.977ZM255.515 262.182C254.727 262.182 254.036 261.994 253.441 261.619C252.85 261.244 252.388 260.72 252.055 260.045C251.725 259.371 251.56 258.583 251.56 257.682C251.56 256.773 251.725 255.979 252.055 255.301C252.388 254.623 252.85 254.097 253.441 253.722C254.036 253.347 254.727 253.159 255.515 253.159C256.303 253.159 256.992 253.347 257.583 253.722C258.178 254.097 258.64 254.623 258.969 255.301C259.303 255.979 259.469 256.773 259.469 257.682C259.469 258.583 259.303 259.371 258.969 260.045C258.64 260.72 258.178 261.244 257.583 261.619C256.992 261.994 256.303 262.182 255.515 262.182ZM255.515 260.977C256.113 260.977 256.606 260.824 256.992 260.517C257.379 260.21 257.665 259.807 257.85 259.307C258.036 258.807 258.129 258.265 258.129 257.682C258.129 257.098 258.036 256.555 257.85 256.051C257.665 255.547 257.379 255.14 256.992 254.83C256.606 254.519 256.113 254.364 255.515 254.364C254.916 254.364 254.424 254.519 254.038 254.83C253.651 255.14 253.365 255.547 253.18 256.051C252.994 256.555 252.901 257.098 252.901 257.682C252.901 258.265 252.994 258.807 253.18 259.307C253.365 259.807 253.651 260.21 254.038 260.517C254.424 260.824 254.916 260.977 255.515 260.977ZM265.312 253.273V254.409H260.789V253.273H265.312ZM262.107 251.182H263.448V259.5C263.448 259.879 263.503 260.163 263.613 260.352C263.727 260.538 263.871 260.663 264.045 260.727C264.223 260.788 264.41 260.818 264.607 260.818C264.755 260.818 264.876 260.811 264.971 260.795C265.066 260.777 265.141 260.761 265.198 260.75L265.471 261.955C265.38 261.989 265.253 262.023 265.09 262.057C264.927 262.095 264.721 262.114 264.471 262.114C264.092 262.114 263.721 262.032 263.357 261.869C262.997 261.706 262.698 261.458 262.46 261.125C262.225 260.792 262.107 260.371 262.107 259.864V251.182ZM268.857 256.75V262H267.516V250.364H268.857V254.636H268.971C269.175 254.186 269.482 253.828 269.891 253.562C270.304 253.294 270.853 253.159 271.539 253.159C272.134 253.159 272.655 253.278 273.102 253.517C273.549 253.752 273.895 254.114 274.141 254.602C274.391 255.087 274.516 255.705 274.516 256.455V262H273.175V256.545C273.175 255.852 272.996 255.316 272.636 254.938C272.28 254.555 271.785 254.364 271.153 254.364C270.713 254.364 270.319 254.456 269.971 254.642C269.626 254.828 269.353 255.098 269.153 255.455C268.956 255.811 268.857 256.242 268.857 256.75ZM280.629 262.182C279.788 262.182 279.062 261.996 278.452 261.625C277.846 261.25 277.379 260.727 277.049 260.057C276.723 259.383 276.56 258.598 276.56 257.705C276.56 256.811 276.723 256.023 277.049 255.341C277.379 254.655 277.837 254.121 278.424 253.739C279.015 253.352 279.704 253.159 280.492 253.159C280.947 253.159 281.396 253.235 281.839 253.386C282.282 253.538 282.685 253.784 283.049 254.125C283.413 254.462 283.702 254.909 283.918 255.466C284.134 256.023 284.242 256.708 284.242 257.523V258.091H277.515V256.932H282.879C282.879 256.439 282.78 256 282.583 255.614C282.39 255.227 282.113 254.922 281.754 254.699C281.397 254.475 280.977 254.364 280.492 254.364C279.958 254.364 279.496 254.496 279.106 254.761C278.719 255.023 278.422 255.364 278.214 255.784C278.005 256.205 277.901 256.655 277.901 257.136V257.909C277.901 258.568 278.015 259.127 278.242 259.585C278.473 260.04 278.793 260.386 279.202 260.625C279.612 260.86 280.087 260.977 280.629 260.977C280.981 260.977 281.299 260.928 281.583 260.83C281.871 260.727 282.119 260.576 282.327 260.375C282.536 260.17 282.697 259.917 282.81 259.614L284.106 259.977C283.969 260.417 283.74 260.803 283.418 261.136C283.096 261.466 282.699 261.723 282.225 261.909C281.752 262.091 281.219 262.182 280.629 262.182ZM286.282 262V253.273H287.577V254.591H287.668C287.827 254.159 288.115 253.809 288.532 253.54C288.949 253.271 289.418 253.136 289.941 253.136C290.04 253.136 290.163 253.138 290.31 253.142C290.458 253.146 290.57 253.152 290.646 253.159V254.523C290.6 254.511 290.496 254.494 290.333 254.472C290.174 254.445 290.005 254.432 289.827 254.432C289.403 254.432 289.024 254.521 288.691 254.699C288.362 254.873 288.1 255.116 287.907 255.426C287.718 255.733 287.623 256.083 287.623 256.477V262H286.282ZM298.417 255.227L297.212 255.568C297.137 255.367 297.025 255.172 296.877 254.983C296.733 254.79 296.536 254.631 296.286 254.506C296.036 254.381 295.716 254.318 295.326 254.318C294.792 254.318 294.347 254.441 293.991 254.688C293.638 254.93 293.462 255.239 293.462 255.614C293.462 255.947 293.584 256.21 293.826 256.403C294.068 256.597 294.447 256.758 294.962 256.886L296.258 257.205C297.038 257.394 297.62 257.684 298.002 258.074C298.385 258.46 298.576 258.958 298.576 259.568C298.576 260.068 298.432 260.515 298.144 260.909C297.86 261.303 297.462 261.614 296.951 261.841C296.44 262.068 295.845 262.182 295.167 262.182C294.277 262.182 293.54 261.989 292.957 261.602C292.373 261.216 292.004 260.652 291.849 259.909L293.121 259.591C293.243 260.061 293.472 260.413 293.809 260.648C294.15 260.883 294.595 261 295.144 261C295.769 261 296.265 260.867 296.633 260.602C297.004 260.333 297.19 260.011 297.19 259.636C297.19 259.333 297.084 259.08 296.871 258.875C296.659 258.667 296.334 258.511 295.894 258.409L294.44 258.068C293.64 257.879 293.053 257.585 292.678 257.188C292.307 256.786 292.121 256.284 292.121 255.682C292.121 255.189 292.26 254.754 292.536 254.375C292.817 253.996 293.197 253.699 293.678 253.483C294.163 253.267 294.712 253.159 295.326 253.159C296.19 253.159 296.868 253.348 297.36 253.727C297.856 254.106 298.209 254.606 298.417 255.227ZM301.572 262.091C301.291 262.091 301.051 261.991 300.85 261.79C300.649 261.589 300.549 261.348 300.549 261.068C300.549 260.788 300.649 260.547 300.85 260.347C301.051 260.146 301.291 260.045 301.572 260.045C301.852 260.045 302.093 260.146 302.293 260.347C302.494 260.547 302.594 260.788 302.594 261.068C302.594 261.254 302.547 261.424 302.452 261.58C302.362 261.735 302.238 261.86 302.083 261.955C301.932 262.045 301.761 262.091 301.572 262.091Z" fill="#606060"/>
<rect x="24" y="290" width="345" height="56" rx="16" fill="#EDEFF2"/>
<g clip-path="url(#clip1_31_5581)">
<rect x="36" y="308" width="1" height="20" fill="#005FF9"/>
<path d="M37.3835 312.091H38.8963L41.9219 317.183H42.0497L45.0753 312.091H46.5881L42.6463 318.504V323H41.3253V318.504L37.3835 312.091ZM50.2928 323.17C49.5542 323.17 48.9061 322.995 48.3485 322.643C47.7946 322.292 47.3613 321.8 47.0488 321.168C46.7399 320.536 46.5854 319.797 46.5854 318.952C46.5854 318.099 46.7399 317.355 47.0488 316.72C47.3613 316.084 47.7946 315.591 48.3485 315.239C48.9061 314.887 49.5542 314.712 50.2928 314.712C51.0314 314.712 51.6777 314.887 52.2317 315.239C52.7892 315.591 53.2225 316.084 53.5314 316.72C53.8439 317.355 54.0002 318.099 54.0002 318.952C54.0002 319.797 53.8439 320.536 53.5314 321.168C53.2225 321.8 52.7892 322.292 52.2317 322.643C51.6777 322.995 51.0314 323.17 50.2928 323.17ZM50.2928 322.041C50.8539 322.041 51.3155 321.897 51.6777 321.61C52.04 321.322 52.3081 320.944 52.4821 320.475C52.6561 320.006 52.7431 319.499 52.7431 318.952C52.7431 318.405 52.6561 317.895 52.4821 317.423C52.3081 316.951 52.04 316.569 51.6777 316.278C51.3155 315.987 50.8539 315.841 50.2928 315.841C49.7317 315.841 49.2701 315.987 48.9078 316.278C48.5456 316.569 48.2775 316.951 48.1035 317.423C47.9295 317.895 47.8425 318.405 47.8425 318.952C47.8425 319.499 47.9295 320.006 48.1035 320.475C48.2775 320.944 48.5456 321.322 48.9078 321.61C49.2701 321.897 49.7317 322.041 50.2928 322.041ZM61.0754 319.655V314.818H62.3325V323H61.0754V321.615H60.9901C60.7984 322.031 60.5001 322.384 60.0953 322.675C59.6904 322.963 59.1791 323.107 58.5612 323.107C58.0498 323.107 57.5953 322.995 57.1975 322.771C56.7998 322.544 56.4873 322.203 56.26 321.748C56.0328 321.29 55.9191 320.713 55.9191 320.017V314.818H57.1762V319.932C57.1762 320.528 57.3431 321.004 57.6769 321.359C58.0143 321.714 58.444 321.892 58.966 321.892C59.2785 321.892 59.5963 321.812 59.9195 321.652C60.2462 321.493 60.5196 321.248 60.7398 320.917C60.9635 320.587 61.0754 320.166 61.0754 319.655ZM64.6349 323V314.818H65.8494V316.054H65.9347C66.0838 315.649 66.3537 315.321 66.7443 315.069C67.1349 314.816 67.5753 314.69 68.0653 314.69C68.1577 314.69 68.2731 314.692 68.4116 314.696C68.5501 314.699 68.6548 314.705 68.7259 314.712V315.99C68.6832 315.979 68.5856 315.963 68.4329 315.942C68.2837 315.917 68.1257 315.905 67.9588 315.905C67.5611 315.905 67.206 315.988 66.8935 316.155C66.5845 316.319 66.3395 316.546 66.1584 316.837C65.9808 317.125 65.892 317.453 65.892 317.822V323H64.6349ZM75.6919 318.078V323H74.4347V314.818H75.6492V316.097H75.7558C75.9475 315.681 76.2387 315.347 76.6294 315.095C77.02 314.839 77.5242 314.712 78.1421 314.712C78.6961 314.712 79.1808 314.825 79.5963 315.053C80.0118 315.276 80.335 315.617 80.5658 316.075C80.7966 316.53 80.912 317.105 80.912 317.801V323H79.6549V317.886C79.6549 317.244 79.488 316.743 79.1542 316.384C78.8204 316.022 78.3623 315.841 77.7799 315.841C77.3786 315.841 77.02 315.928 76.7039 316.102C76.3914 316.276 76.1446 316.53 75.9635 316.864C75.7824 317.197 75.6919 317.602 75.6919 318.078ZM85.6168 323.192C85.0984 323.192 84.6278 323.094 84.2053 322.899C83.7827 322.7 83.4471 322.414 83.1985 322.041C82.9499 321.665 82.8256 321.21 82.8256 320.678C82.8256 320.209 82.918 319.829 83.1026 319.538C83.2873 319.243 83.5341 319.012 83.843 318.845C84.152 318.678 84.4929 318.554 84.8658 318.472C85.2422 318.387 85.6204 318.32 86.0004 318.27C86.4975 318.206 86.9006 318.158 87.2095 318.126C87.522 318.091 87.7493 318.032 87.8913 317.95C88.0369 317.869 88.1097 317.727 88.1097 317.524V317.482C88.1097 316.956 87.9659 316.548 87.6783 316.256C87.3942 315.965 86.9627 315.82 86.3839 315.82C85.7837 315.82 85.3132 315.951 84.9723 316.214C84.6314 316.477 84.3917 316.757 84.2532 317.055L83.06 316.629C83.2731 316.132 83.5572 315.745 83.9123 315.468C84.271 315.187 84.6616 314.992 85.0842 314.882C85.5103 314.768 85.9293 314.712 86.3413 314.712C86.604 314.712 86.9059 314.744 87.2468 314.808C87.5913 314.868 87.9233 314.994 88.2429 315.186C88.5661 315.377 88.8342 315.667 89.0472 316.054C89.2603 316.441 89.3668 316.96 89.3668 317.609V323H88.1097V321.892H88.0458C87.9606 322.07 87.8185 322.26 87.6197 322.462C87.4208 322.664 87.1563 322.837 86.826 322.979C86.4957 323.121 86.0927 323.192 85.6168 323.192ZM85.8086 322.062C86.3058 322.062 86.7248 321.965 87.0657 321.77C87.4102 321.574 87.6694 321.322 87.8434 321.013C88.021 320.704 88.1097 320.379 88.1097 320.038V318.888C88.0565 318.952 87.9393 319.01 87.7582 319.064C87.5806 319.113 87.3746 319.158 87.1403 319.197C86.9094 319.232 86.6839 319.264 86.4638 319.293C86.2472 319.317 86.0714 319.339 85.9364 319.357C85.6097 319.399 85.3043 319.468 85.0202 319.564C84.7397 319.657 84.5124 319.797 84.3384 319.985C84.168 320.17 84.0827 320.422 84.0827 320.741C84.0827 321.178 84.2443 321.509 84.5675 321.732C84.8942 321.952 85.3079 322.062 85.8086 322.062ZM91.6613 323V314.818H92.8758V316.097H92.9823C93.1528 315.66 93.428 315.321 93.808 315.079C94.1879 314.834 94.6443 314.712 95.1769 314.712C95.7167 314.712 96.1659 314.834 96.5246 315.079C96.8868 315.321 97.1691 315.66 97.3715 316.097H97.4568C97.6663 315.674 97.9806 315.338 98.3996 315.09C98.8186 314.838 99.3211 314.712 99.907 314.712C100.639 314.712 101.237 314.941 101.702 315.399C102.167 315.853 102.4 316.562 102.4 317.524V323H101.143V317.524C101.143 316.92 100.978 316.489 100.647 316.23C100.317 315.971 99.9284 315.841 99.4809 315.841C98.9056 315.841 98.46 316.015 98.1439 316.363C97.8279 316.707 97.6698 317.144 97.6698 317.673V323H96.3914V317.396C96.3914 316.931 96.2405 316.556 95.9387 316.272C95.6368 315.985 95.248 315.841 94.7721 315.841C94.4454 315.841 94.14 315.928 93.8559 316.102C93.5754 316.276 93.3481 316.517 93.1741 316.826C93.0036 317.132 92.9184 317.485 92.9184 317.886V323H91.6613ZM108.129 323.17C107.34 323.17 106.66 322.996 106.089 322.648C105.521 322.297 105.082 321.807 104.773 321.178C104.468 320.546 104.315 319.811 104.315 318.973C104.315 318.135 104.468 317.396 104.773 316.757C105.082 316.114 105.512 315.614 106.062 315.255C106.616 314.893 107.262 314.712 108.001 314.712C108.427 314.712 108.848 314.783 109.263 314.925C109.679 315.067 110.057 315.298 110.398 315.617C110.739 315.933 111.011 316.352 111.213 316.874C111.415 317.396 111.517 318.039 111.517 318.803V319.335H105.21V318.249H110.238C110.238 317.787 110.146 317.375 109.961 317.013C109.78 316.651 109.521 316.365 109.184 316.155C108.85 315.946 108.456 315.841 108.001 315.841C107.5 315.841 107.067 315.965 106.701 316.214C106.339 316.459 106.06 316.778 105.865 317.173C105.67 317.567 105.572 317.989 105.572 318.44V319.165C105.572 319.783 105.679 320.306 105.892 320.736C106.108 321.162 106.408 321.487 106.792 321.711C107.175 321.931 107.621 322.041 108.129 322.041C108.459 322.041 108.757 321.995 109.024 321.903C109.294 321.807 109.526 321.665 109.722 321.477C109.917 321.285 110.068 321.047 110.174 320.763L111.389 321.104C111.261 321.516 111.046 321.878 110.744 322.19C110.442 322.499 110.07 322.741 109.626 322.915C109.182 323.085 108.683 323.17 108.129 323.17Z" fill="#2C2D2E" fill-opacity="0.4"/>
<path d="M119.736 318.227L119.821 315.884L117.839 317.141L117.328 316.246L119.416 315.159L117.328 314.072L117.839 313.178L119.821 314.435L119.736 312.091H120.758L120.673 314.435L122.655 313.178L123.166 314.072L121.078 315.159L123.166 316.246L122.655 317.141L120.673 315.884L120.758 318.227H119.736Z" fill="#FF0000"/>
</g>
<path fill-rule="evenodd" clip-rule="evenodd" d="M347.586 317.999L345.293 315.706C344.902 315.316 344.902 314.682 345.293 314.292C345.683 313.903 346.317 313.903 346.707 314.292L349 316.585L351.293 314.292C351.683 313.903 352.317 313.903 352.707 314.292C353.097 314.682 353.097 315.316 352.707 315.706L350.414 317.999L352.707 320.292C353.097 320.682 353.097 321.316 352.707 321.706C352.317 322.096 351.683 322.096 351.293 321.706L349 319.413L346.707 321.706C346.317 322.096 345.683 322.096 345.293 321.706C344.902 321.316 344.902 320.682 345.293 320.292L347.586 317.999Z" fill="#2C2D2E"/>
<rect x="24" y="358" width="345" height="56" rx="16" fill="#EDEFF2"/>
<g clip-path="url(#clip2_31_5581)">
<path d="M43.2869 382.818C43.223 382.278 42.9638 381.859 42.5092 381.561C42.0547 381.263 41.4972 381.114 40.8366 381.114C40.3537 381.114 39.9311 381.192 39.5689 381.348C39.2102 381.504 38.9297 381.719 38.7273 381.993C38.5284 382.266 38.429 382.577 38.429 382.925C38.429 383.216 38.4982 383.466 38.6367 383.676C38.7788 383.882 38.9599 384.054 39.18 384.192C39.4002 384.327 39.631 384.439 39.8725 384.528C40.114 384.613 40.3359 384.683 40.5384 384.736L41.6463 385.034C41.9304 385.109 42.2464 385.212 42.5945 385.343C42.946 385.474 43.2816 385.654 43.6012 385.881C43.9244 386.105 44.1907 386.392 44.4002 386.744C44.6097 387.096 44.7145 387.527 44.7145 388.038C44.7145 388.628 44.56 389.161 44.2511 389.636C43.9457 390.112 43.4982 390.49 42.9087 390.771C42.3228 391.051 41.6108 391.192 40.7727 391.192C39.9915 391.192 39.315 391.066 38.7433 390.814C38.1751 390.561 37.7276 390.21 37.4009 389.759C37.0778 389.308 36.8949 388.784 36.8523 388.188H38.2159C38.2514 388.599 38.3899 388.94 38.6314 389.21C38.8764 389.477 39.1854 389.675 39.5582 389.807C39.9347 389.935 40.3395 389.999 40.7727 389.999C41.277 389.999 41.7298 389.917 42.131 389.754C42.5323 389.587 42.8501 389.356 43.0845 389.061C43.3189 388.763 43.4361 388.415 43.4361 388.017C43.4361 387.655 43.3349 387.36 43.1325 387.133C42.93 386.906 42.6637 386.721 42.3335 386.579C42.0032 386.437 41.6463 386.312 41.2628 386.206L39.9205 385.822C39.0682 385.577 38.3935 385.228 37.8963 384.773C37.3991 384.319 37.1506 383.724 37.1506 382.989C37.1506 382.378 37.3157 381.845 37.646 381.391C37.9798 380.933 38.4272 380.577 38.9883 380.325C39.5529 380.07 40.1832 379.942 40.8793 379.942C41.5824 379.942 42.2074 380.068 42.7543 380.32C43.3011 380.569 43.7344 380.909 44.054 381.343C44.3771 381.776 44.5476 382.268 44.5653 382.818H43.2869ZM51.8722 387.655V382.818H53.1294V391H51.8722V389.615H51.787C51.5953 390.031 51.297 390.384 50.8921 390.675C50.4873 390.963 49.9759 391.107 49.358 391.107C48.8467 391.107 48.3921 390.995 47.9944 390.771C47.5967 390.544 47.2842 390.203 47.0569 389.748C46.8296 389.29 46.716 388.713 46.716 388.017V382.818H47.9731V387.932C47.9731 388.528 48.14 389.004 48.4738 389.359C48.8112 389.714 49.2409 389.892 49.7629 389.892C50.0754 389.892 50.3932 389.812 50.7164 389.652C51.0431 389.493 51.3165 389.248 51.5367 388.917C51.7604 388.587 51.8722 388.166 51.8722 387.655ZM55.4318 391V382.818H56.6463V384.054H56.7315C56.8807 383.649 57.1506 383.321 57.5412 383.069C57.9318 382.816 58.3722 382.69 58.8622 382.69C58.9545 382.69 59.07 382.692 59.2085 382.696C59.3469 382.699 59.4517 382.705 59.5227 382.712V383.99C59.4801 383.979 59.3825 383.963 59.2298 383.942C59.0806 383.917 58.9226 383.905 58.7557 383.905C58.358 383.905 58.0028 383.988 57.6903 384.155C57.3814 384.319 57.1364 384.546 56.9553 384.837C56.7777 385.125 56.6889 385.453 56.6889 385.822V391H55.4318ZM62.27 386.078V391H61.0129V382.818H62.2274V384.097H62.3339C62.5257 383.681 62.8169 383.347 63.2075 383.095C63.5981 382.839 64.1024 382.712 64.7203 382.712C65.2742 382.712 65.759 382.825 66.1744 383.053C66.5899 383.276 66.9131 383.617 67.1439 384.075C67.3747 384.53 67.4901 385.105 67.4901 385.801V391H66.233V385.886C66.233 385.244 66.0661 384.743 65.7323 384.384C65.3985 384.022 64.9404 383.841 64.358 383.841C63.9568 383.841 63.5981 383.928 63.282 384.102C62.9695 384.276 62.7227 384.53 62.5416 384.864C62.3605 385.197 62.27 385.602 62.27 386.078ZM72.195 391.192C71.6765 391.192 71.206 391.094 70.7834 390.899C70.3608 390.7 70.0252 390.414 69.7766 390.041C69.5281 389.665 69.4038 389.21 69.4038 388.678C69.4038 388.209 69.4961 387.829 69.6808 387.538C69.8654 387.243 70.1122 387.012 70.4212 386.845C70.7301 386.678 71.071 386.554 71.4439 386.472C71.8203 386.387 72.1985 386.32 72.5785 386.27C73.0756 386.206 73.4787 386.158 73.7876 386.126C74.1001 386.091 74.3274 386.032 74.4695 385.95C74.6151 385.869 74.6879 385.727 74.6879 385.524V385.482C74.6879 384.956 74.544 384.548 74.2564 384.256C73.9723 383.965 73.5408 383.82 72.962 383.82C72.3619 383.82 71.8913 383.951 71.5504 384.214C71.2095 384.477 70.9698 384.757 70.8313 385.055L69.6381 384.629C69.8512 384.132 70.1353 383.745 70.4904 383.468C70.8491 383.187 71.2397 382.992 71.6623 382.882C72.0884 382.768 72.5075 382.712 72.9194 382.712C73.1822 382.712 73.484 382.744 73.8249 382.808C74.1694 382.868 74.5014 382.994 74.821 383.186C75.1442 383.377 75.4123 383.667 75.6254 384.054C75.8384 384.441 75.945 384.96 75.945 385.609V391H74.6879V389.892H74.6239C74.5387 390.07 74.3967 390.26 74.1978 390.462C73.9989 390.664 73.7344 390.837 73.4041 390.979C73.0739 391.121 72.6708 391.192 72.195 391.192ZM72.3867 390.062C72.8839 390.062 73.3029 389.965 73.6438 389.77C73.9883 389.574 74.2475 389.322 74.4215 389.013C74.5991 388.704 74.6879 388.379 74.6879 388.038V386.888C74.6346 386.952 74.5174 387.01 74.3363 387.064C74.1587 387.113 73.9528 387.158 73.7184 387.197C73.4876 387.232 73.2621 387.264 73.0419 387.293C72.8253 387.317 72.6495 387.339 72.5146 387.357C72.1879 387.399 71.8825 387.468 71.5984 387.564C71.3178 387.657 71.0906 387.797 70.9165 387.985C70.7461 388.17 70.6609 388.422 70.6609 388.741C70.6609 389.178 70.8224 389.509 71.1456 389.732C71.4723 389.952 71.886 390.062 72.3867 390.062ZM78.2394 391V382.818H79.4539V384.097H79.5605C79.7309 383.66 80.0061 383.321 80.3861 383.079C80.7661 382.834 81.2224 382.712 81.7551 382.712C82.2948 382.712 82.7441 382.834 83.1027 383.079C83.4649 383.321 83.7472 383.66 83.9497 384.097H84.0349C84.2444 383.674 84.5587 383.338 84.9777 383.09C85.3968 382.838 85.8992 382.712 86.4852 382.712C87.2167 382.712 87.8151 382.941 88.2803 383.399C88.7455 383.853 88.9781 384.562 88.9781 385.524V391H87.721V385.524C87.721 384.92 87.5558 384.489 87.2256 384.23C86.8953 383.971 86.5065 383.841 86.059 383.841C85.4838 383.841 85.0381 384.015 84.722 384.363C84.406 384.707 84.248 385.144 84.248 385.673V391H82.9695V385.396C82.9695 384.931 82.8186 384.556 82.5168 384.272C82.2149 383.985 81.8261 383.841 81.3502 383.841C81.0235 383.841 80.7181 383.928 80.434 384.102C80.1535 384.276 79.9262 384.517 79.7522 384.826C79.5818 385.132 79.4965 385.485 79.4965 385.886V391H78.2394ZM94.7069 391.17C93.9186 391.17 93.2385 390.996 92.6668 390.648C92.0986 390.297 91.6601 389.807 91.3511 389.178C91.0457 388.546 90.893 387.811 90.893 386.973C90.893 386.135 91.0457 385.396 91.3511 384.757C91.6601 384.114 92.0898 383.614 92.6402 383.255C93.1942 382.893 93.8405 382.712 94.5791 382.712C95.0052 382.712 95.426 382.783 95.8415 382.925C96.257 383.067 96.6352 383.298 96.9761 383.617C97.317 383.933 97.5887 384.352 97.7911 384.874C97.9935 385.396 98.0947 386.039 98.0947 386.803V387.335H91.7879V386.249H96.8163C96.8163 385.787 96.724 385.375 96.5393 385.013C96.3582 384.651 96.099 384.365 95.7616 384.155C95.4278 383.946 95.0336 383.841 94.5791 383.841C94.0784 383.841 93.6452 383.965 93.2794 384.214C92.9172 384.459 92.6384 384.778 92.4431 385.173C92.2478 385.567 92.1501 385.989 92.1501 386.44V387.165C92.1501 387.783 92.2567 388.306 92.4697 388.736C92.6863 389.162 92.9864 389.487 93.3699 389.711C93.7535 389.931 94.1991 390.041 94.7069 390.041C95.0372 390.041 95.3355 389.995 95.6018 389.903C95.8717 389.807 96.1043 389.665 96.2996 389.477C96.4949 389.285 96.6459 389.047 96.7524 388.763L97.9669 389.104C97.839 389.516 97.6242 389.878 97.3224 390.19C97.0205 390.499 96.6476 390.741 96.2037 390.915C95.7599 391.085 95.2609 391.17 94.7069 391.17Z" fill="#2C2D2E" fill-opacity="0.4"/>
<path d="M106.314 386.227L106.399 383.884L104.418 385.141L103.906 384.246L105.994 383.159L103.906 382.072L104.418 381.178L106.399 382.435L106.314 380.091H107.337L107.251 382.435L109.233 381.178L109.744 382.072L107.656 383.159L109.744 384.246L109.233 385.141L107.251 383.884L107.337 386.227H106.314Z" fill="#FF0000"/>
</g>
<rect x="24" y="426" width="345" height="56" rx="16" fill="#EDEFF2"/>
<g clip-path="url(#clip3_31_5581)">
<path d="M40.6875 459H37.321V448.091H40.8366C41.8949 448.091 42.8004 448.309 43.5533 448.746C44.3061 449.179 44.8832 449.803 45.2844 450.616C45.6857 451.425 45.8864 452.395 45.8864 453.524C45.8864 454.661 45.6839 455.639 45.2791 456.459C44.8743 457.276 44.2848 457.904 43.5107 458.345C42.7365 458.782 41.7955 459 40.6875 459ZM38.642 457.828H40.6023C41.5043 457.828 42.2518 457.654 42.8448 457.306C43.4379 456.958 43.88 456.463 44.1712 455.82C44.4624 455.177 44.608 454.412 44.608 453.524C44.608 452.643 44.4641 451.885 44.1765 451.25C43.8888 450.61 43.4592 450.12 42.8874 449.779C42.3157 449.435 41.6037 449.263 40.7514 449.263H38.642V457.828ZM50.3395 459.192C49.821 459.192 49.3505 459.094 48.9279 458.899C48.5053 458.7 48.1697 458.414 47.9212 458.041C47.6726 457.665 47.5483 457.21 47.5483 456.678C47.5483 456.209 47.6406 455.829 47.8253 455.538C48.0099 455.243 48.2567 455.012 48.5657 454.845C48.8746 454.678 49.2156 454.554 49.5884 454.472C49.9648 454.387 50.343 454.32 50.723 454.27C51.2202 454.206 51.6232 454.158 51.9322 454.126C52.2447 454.091 52.4719 454.032 52.614 453.95C52.7596 453.869 52.8324 453.727 52.8324 453.524V453.482C52.8324 452.956 52.6886 452.548 52.4009 452.256C52.1168 451.965 51.6854 451.82 51.1065 451.82C50.5064 451.82 50.0359 451.951 49.695 452.214C49.354 452.477 49.1143 452.757 48.9759 453.055L47.7827 452.629C47.9957 452.132 48.2798 451.745 48.6349 451.468C48.9936 451.187 49.3842 450.992 49.8068 450.882C50.233 450.768 50.652 450.712 51.0639 450.712C51.3267 450.712 51.6286 450.744 51.9695 450.808C52.3139 450.868 52.646 450.994 52.9656 451.186C53.2887 451.377 53.5568 451.667 53.7699 452.054C53.983 452.441 54.0895 452.96 54.0895 453.609V459H52.8324V457.892H52.7685C52.6832 458.07 52.5412 458.26 52.3423 458.462C52.1435 458.664 51.8789 458.837 51.5487 458.979C51.2184 459.121 50.8153 459.192 50.3395 459.192ZM50.5312 458.062C51.0284 458.062 51.4474 457.965 51.7884 457.77C52.1328 457.574 52.392 457.322 52.5661 457.013C52.7436 456.704 52.8324 456.379 52.8324 456.038V454.888C52.7791 454.952 52.6619 455.01 52.4808 455.064C52.3033 455.113 52.0973 455.158 51.8629 455.197C51.6321 455.232 51.4066 455.264 51.1864 455.293C50.9698 455.317 50.794 455.339 50.6591 455.357C50.3324 455.399 50.027 455.468 49.7429 455.564C49.4624 455.657 49.2351 455.797 49.0611 455.985C48.8906 456.17 48.8054 456.422 48.8054 456.741C48.8054 457.178 48.967 457.509 49.2901 457.732C49.6168 457.952 50.0305 458.062 50.5312 458.062ZM59.9422 450.818V451.884H55.7021V450.818H59.9422ZM56.9379 448.858H58.195V456.656C58.195 457.011 58.2465 457.278 58.3495 457.455C58.4561 457.629 58.591 457.746 58.7544 457.807C58.9213 457.864 59.097 457.892 59.2817 457.892C59.4202 457.892 59.5338 457.885 59.6226 457.871C59.7114 457.853 59.7824 457.839 59.8357 457.828L60.0914 458.957C60.0061 458.989 59.8872 459.021 59.7345 459.053C59.5818 459.089 59.3882 459.107 59.1539 459.107C58.7987 459.107 58.4507 459.03 58.1098 458.877C57.7725 458.725 57.4919 458.492 57.2682 458.18C57.048 457.867 56.9379 457.473 56.9379 456.997V448.858ZM65.1757 459.17C64.3873 459.17 63.7073 458.996 63.1356 458.648C62.5674 458.297 62.1288 457.807 61.8199 457.178C61.5145 456.546 61.3618 455.811 61.3618 454.973C61.3618 454.135 61.5145 453.396 61.8199 452.757C62.1288 452.114 62.5585 451.614 63.1089 451.255C63.6629 450.893 64.3092 450.712 65.0479 450.712C65.474 450.712 65.8948 450.783 66.3103 450.925C66.7258 451.067 67.104 451.298 67.4449 451.617C67.7858 451.933 68.0574 452.352 68.2599 452.874C68.4623 453.396 68.5635 454.039 68.5635 454.803V455.335H62.2567V454.249H67.2851C67.2851 453.787 67.1927 453.375 67.0081 453.013C66.827 452.651 66.5677 452.365 66.2304 452.155C65.8966 451.946 65.5024 451.841 65.0479 451.841C64.5471 451.841 64.1139 451.965 63.7481 452.214C63.3859 452.459 63.1072 452.778 62.9118 453.173C62.7165 453.567 62.6189 453.989 62.6189 454.44V455.165C62.6189 455.783 62.7254 456.306 62.9385 456.736C63.1551 457.162 63.4552 457.487 63.8387 457.711C64.2222 457.931 64.6679 458.041 65.1757 458.041C65.5059 458.041 65.8042 457.995 66.0706 457.903C66.3405 457.807 66.5731 457.665 66.7684 457.477C66.9637 457.285 67.1146 457.047 67.2211 456.763L68.4356 457.104C68.3078 457.516 68.093 457.878 67.7911 458.19C67.4893 458.499 67.1164 458.741 66.6725 458.915C66.2286 459.085 65.7297 459.17 65.1757 459.17ZM78.0184 459.17C77.2797 459.17 76.6317 458.995 76.0741 458.643C75.5202 458.292 75.0869 457.8 74.7744 457.168C74.4655 456.536 74.311 455.797 74.311 454.952C74.311 454.099 74.4655 453.355 74.7744 452.72C75.0869 452.084 75.5202 451.591 76.0741 451.239C76.6317 450.887 77.2797 450.712 78.0184 450.712C78.757 450.712 79.4033 450.887 79.9573 451.239C80.5148 451.591 80.9481 452.084 81.257 452.72C81.5695 453.355 81.7258 454.099 81.7258 454.952C81.7258 455.797 81.5695 456.536 81.257 457.168C80.9481 457.8 80.5148 458.292 79.9573 458.643C79.4033 458.995 78.757 459.17 78.0184 459.17ZM78.0184 458.041C78.5795 458.041 79.0411 457.897 79.4033 457.61C79.7655 457.322 80.0336 456.944 80.2077 456.475C80.3817 456.006 80.4687 455.499 80.4687 454.952C80.4687 454.405 80.3817 453.895 80.2077 453.423C80.0336 452.951 79.7655 452.569 79.4033 452.278C79.0411 451.987 78.5795 451.841 78.0184 451.841C77.4573 451.841 76.9956 451.987 76.6334 452.278C76.2712 452.569 76.0031 452.951 75.8291 453.423C75.6551 453.895 75.5681 454.405 75.5681 454.952C75.5681 455.499 75.6551 456.006 75.8291 456.475C76.0031 456.944 76.2712 457.322 76.6334 457.61C76.9956 457.897 77.4573 458.041 78.0184 458.041ZM87.2882 450.818V451.884H82.8777V450.818H87.2882ZM84.1987 459V449.689C84.1987 449.22 84.3088 448.83 84.5289 448.517C84.7491 448.205 85.035 447.97 85.3865 447.814C85.7381 447.658 86.1092 447.58 86.4998 447.58C86.8088 447.58 87.0609 447.604 87.2562 447.654C87.4515 447.704 87.5971 447.75 87.693 447.793L87.3308 448.879C87.2669 448.858 87.1781 448.831 87.0645 448.799C86.9544 448.767 86.8088 448.751 86.6277 448.751C86.2122 448.751 85.9121 448.856 85.7275 449.066C85.5463 449.275 85.4558 449.582 85.4558 449.987V459H84.1987ZM93.4392 459V448.091H94.6963V452.118H94.8028C94.8952 451.976 95.023 451.795 95.1863 451.575C95.3532 451.351 95.5912 451.152 95.9001 450.978C96.2126 450.8 96.6352 450.712 97.1679 450.712C97.8568 450.712 98.464 450.884 98.9896 451.228C99.5152 451.573 99.9253 452.061 100.22 452.693C100.515 453.325 100.662 454.071 100.662 454.93C100.662 455.797 100.515 456.548 100.22 457.184C99.9253 457.816 99.517 458.306 98.9949 458.654C98.4729 458.998 97.871 459.17 97.1892 459.17C96.6636 459.17 96.2428 459.083 95.9268 458.909C95.6107 458.732 95.3675 458.531 95.197 458.308C95.0265 458.08 94.8952 457.892 94.8028 457.743H94.6537V459H93.4392ZM94.675 454.909C94.675 455.527 94.7655 456.072 94.9466 456.544C95.1278 457.013 95.3923 457.381 95.7403 457.647C96.0883 457.91 96.5145 458.041 97.0187 458.041C97.5443 458.041 97.9829 457.903 98.3344 457.626C98.6895 457.345 98.9559 456.969 99.1334 456.496C99.3145 456.021 99.4051 455.491 99.4051 454.909C99.4051 454.334 99.3163 453.815 99.1388 453.354C98.9648 452.888 98.7002 452.521 98.3451 452.251C97.9935 451.978 97.5514 451.841 97.0187 451.841C96.5074 451.841 96.0777 451.971 95.7297 452.23C95.3817 452.485 95.1189 452.844 94.9413 453.306C94.7638 453.764 94.675 454.298 94.675 454.909ZM102.585 459V450.818H103.842V459H102.585ZM103.224 449.455C102.979 449.455 102.768 449.371 102.59 449.204C102.416 449.037 102.329 448.837 102.329 448.602C102.329 448.368 102.416 448.167 102.59 448C102.768 447.833 102.979 447.75 103.224 447.75C103.469 447.75 103.679 447.833 103.853 448C104.03 448.167 104.119 448.368 104.119 448.602C104.119 448.837 104.03 449.037 103.853 449.204C103.679 449.371 103.469 449.455 103.224 449.455ZM106.145 459V450.818H107.359V452.054H107.444C107.594 451.649 107.863 451.321 108.254 451.069C108.645 450.816 109.085 450.69 109.575 450.69C109.667 450.69 109.783 450.692 109.921 450.696C110.06 450.699 110.165 450.705 110.236 450.712V451.99C110.193 451.979 110.095 451.963 109.943 451.942C109.794 451.917 109.635 451.905 109.469 451.905C109.071 451.905 108.716 451.988 108.403 452.155C108.094 452.319 107.849 452.546 107.668 452.837C107.491 453.125 107.402 453.453 107.402 453.822V459H106.145ZM115.797 450.818V451.884H111.557V450.818H115.797ZM112.792 448.858H114.05V456.656C114.05 457.011 114.101 457.278 114.204 457.455C114.311 457.629 114.445 457.746 114.609 457.807C114.776 457.864 114.952 457.892 115.136 457.892C115.275 457.892 115.388 457.885 115.477 457.871C115.566 457.853 115.637 457.839 115.69 457.828L115.946 458.957C115.861 458.989 115.742 459.021 115.589 459.053C115.436 459.089 115.243 459.107 115.008 459.107C114.653 459.107 114.305 459.03 113.964 458.877C113.627 458.725 113.346 458.492 113.123 458.18C112.903 457.867 112.792 457.473 112.792 456.997V448.858ZM119.121 454.078V459H117.863V448.091H119.121V452.097H119.227C119.419 451.674 119.706 451.338 120.09 451.09C120.477 450.838 120.992 450.712 121.635 450.712C122.192 450.712 122.681 450.824 123.1 451.047C123.519 451.267 123.844 451.607 124.074 452.065C124.309 452.519 124.426 453.098 124.426 453.801V459H123.169V453.886C123.169 453.237 123 452.734 122.663 452.379C122.329 452.02 121.866 451.841 121.273 451.841C120.861 451.841 120.491 451.928 120.165 452.102C119.841 452.276 119.586 452.53 119.398 452.864C119.213 453.197 119.121 453.602 119.121 454.078Z" fill="#2C2D2E" fill-opacity="0.4"/>
<path d="M133.033 454.227L133.118 451.884L131.136 453.141L130.625 452.246L132.713 451.159L130.625 450.072L131.136 449.178L133.118 450.435L133.033 448.091H134.055L133.97 450.435L135.952 449.178L136.463 450.072L134.375 451.159L136.463 452.246L135.952 453.141L133.97 451.884L134.055 454.227H133.033Z" fill="#FF0000"/>
</g>
<rect x="24" y="494" width="345" height="56" rx="16" fill="#EDEFF2"/>
<g clip-path="url(#clip4_31_5581)">
<path d="M43.2869 518.818C43.223 518.278 42.9638 517.859 42.5092 517.561C42.0547 517.263 41.4972 517.114 40.8366 517.114C40.3537 517.114 39.9311 517.192 39.5689 517.348C39.2102 517.504 38.9297 517.719 38.7273 517.993C38.5284 518.266 38.429 518.577 38.429 518.925C38.429 519.216 38.4982 519.466 38.6367 519.676C38.7788 519.882 38.9599 520.054 39.18 520.192C39.4002 520.327 39.631 520.439 39.8725 520.528C40.114 520.613 40.3359 520.683 40.5384 520.736L41.6463 521.034C41.9304 521.109 42.2464 521.212 42.5945 521.343C42.946 521.474 43.2816 521.654 43.6012 521.881C43.9244 522.105 44.1907 522.392 44.4002 522.744C44.6097 523.096 44.7145 523.527 44.7145 524.038C44.7145 524.628 44.56 525.161 44.2511 525.636C43.9457 526.112 43.4982 526.49 42.9087 526.771C42.3228 527.051 41.6108 527.192 40.7727 527.192C39.9915 527.192 39.315 527.066 38.7433 526.814C38.1751 526.561 37.7276 526.21 37.4009 525.759C37.0778 525.308 36.8949 524.784 36.8523 524.188H38.2159C38.2514 524.599 38.3899 524.94 38.6314 525.21C38.8764 525.477 39.1854 525.675 39.5582 525.807C39.9347 525.935 40.3395 525.999 40.7727 525.999C41.277 525.999 41.7298 525.917 42.131 525.754C42.5323 525.587 42.8501 525.356 43.0845 525.061C43.3189 524.763 43.4361 524.415 43.4361 524.017C43.4361 523.655 43.3349 523.36 43.1325 523.133C42.93 522.906 42.6637 522.721 42.3335 522.579C42.0032 522.437 41.6463 522.312 41.2628 522.206L39.9205 521.822C39.0682 521.577 38.3935 521.228 37.8963 520.773C37.3991 520.319 37.1506 519.724 37.1506 518.989C37.1506 518.378 37.3157 517.845 37.646 517.391C37.9798 516.933 38.4272 516.577 38.9883 516.325C39.5529 516.07 40.1832 515.942 40.8793 515.942C41.5824 515.942 42.2074 516.068 42.7543 516.32C43.3011 516.569 43.7344 516.909 44.054 517.343C44.3771 517.776 44.5476 518.268 44.5653 518.818H43.2869ZM46.716 530.068V518.818H47.9305V520.118H48.0796C48.172 519.976 48.2998 519.795 48.4632 519.575C48.6301 519.351 48.868 519.152 49.1769 518.978C49.4894 518.8 49.912 518.712 50.4447 518.712C51.1336 518.712 51.7409 518.884 52.2664 519.228C52.792 519.573 53.2021 520.061 53.4969 520.693C53.7916 521.325 53.939 522.071 53.939 522.93C53.939 523.797 53.7916 524.548 53.4969 525.184C53.2021 525.816 52.7938 526.306 52.2718 526.654C51.7497 526.998 51.1478 527.17 50.466 527.17C49.9404 527.17 49.5196 527.083 49.2036 526.909C48.8875 526.732 48.6443 526.531 48.4738 526.308C48.3034 526.08 48.172 525.892 48.0796 525.743H47.9731V530.068H46.716ZM47.9518 522.909C47.9518 523.527 48.0423 524.072 48.2235 524.544C48.4046 525.013 48.6691 525.381 49.0171 525.647C49.3651 525.91 49.7913 526.041 50.2955 526.041C50.8211 526.041 51.2597 525.903 51.6112 525.626C51.9664 525.345 52.2327 524.969 52.4102 524.496C52.5914 524.021 52.6819 523.491 52.6819 522.909C52.6819 522.334 52.5931 521.815 52.4156 521.354C52.2416 520.888 51.977 520.521 51.6219 520.251C51.2703 519.978 50.8282 519.841 50.2955 519.841C49.7842 519.841 49.3545 519.971 49.0065 520.23C48.6585 520.485 48.3957 520.844 48.2181 521.306C48.0406 521.764 47.9518 522.298 47.9518 522.909ZM59.287 527.17C58.4987 527.17 57.8186 526.996 57.2469 526.648C56.6787 526.297 56.2401 525.807 55.9312 525.178C55.6258 524.546 55.4731 523.811 55.4731 522.973C55.4731 522.135 55.6258 521.396 55.9312 520.757C56.2401 520.114 56.6698 519.614 57.2203 519.255C57.7742 518.893 58.4205 518.712 59.1592 518.712C59.5853 518.712 60.0061 518.783 60.4216 518.925C60.8371 519.067 61.2153 519.298 61.5562 519.617C61.8971 519.933 62.1688 520.352 62.3712 520.874C62.5736 521.396 62.6748 522.039 62.6748 522.803V523.335H56.368V522.249H61.3964C61.3964 521.787 61.3041 521.375 61.1194 521.013C60.9383 520.651 60.6791 520.365 60.3417 520.155C60.0079 519.946 59.6137 519.841 59.1592 519.841C58.6585 519.841 58.2252 519.965 57.8595 520.214C57.4972 520.459 57.2185 520.778 57.0232 521.173C56.8279 521.567 56.7302 521.989 56.7302 522.44V523.165C56.7302 523.783 56.8367 524.306 57.0498 524.736C57.2664 525.162 57.5665 525.487 57.95 525.711C58.3335 525.931 58.7792 526.041 59.287 526.041C59.6173 526.041 59.9156 525.995 60.1819 525.903C60.4518 525.807 60.6844 525.665 60.8797 525.477C61.075 525.285 61.2259 525.047 61.3325 524.763L62.547 525.104C62.4191 525.516 62.2043 525.878 61.9024 526.19C61.6006 526.499 61.2277 526.741 60.7838 526.915C60.3399 527.085 59.841 527.17 59.287 527.17ZM67.911 527.17C67.1439 527.17 66.4834 526.989 65.9294 526.627C65.3754 526.265 64.9493 525.766 64.651 525.13C64.3527 524.495 64.2036 523.768 64.2036 522.952C64.2036 522.121 64.3563 521.387 64.6617 520.752C64.9706 520.113 65.4003 519.614 65.9507 519.255C66.5047 518.893 67.151 518.712 67.8896 518.712C68.4649 518.712 68.9834 518.818 69.445 519.031C69.9067 519.244 70.2849 519.543 70.5796 519.926C70.8744 520.31 71.0573 520.757 71.1283 521.268H69.8712C69.7753 520.896 69.5622 520.565 69.232 520.278C68.9053 519.987 68.4649 519.841 67.911 519.841C67.4209 519.841 66.9912 519.969 66.6219 520.224C66.2561 520.477 65.9703 520.833 65.7643 521.295C65.5619 521.753 65.4607 522.291 65.4607 522.909C65.4607 523.541 65.5601 524.092 65.759 524.56C65.9614 525.029 66.2455 525.393 66.6112 525.652C66.9806 525.912 67.4138 526.041 67.911 526.041C68.2377 526.041 68.5342 525.984 68.8005 525.871C69.0669 525.757 69.2923 525.594 69.477 525.381C69.6617 525.168 69.7931 524.912 69.8712 524.614H71.1283C71.0573 525.097 70.8815 525.532 70.6009 525.919C70.324 526.302 69.9564 526.608 69.4983 526.835C69.0438 527.059 68.5146 527.17 67.911 527.17ZM72.966 527V518.818H74.2231V527H72.966ZM73.6052 517.455C73.3602 517.455 73.1489 517.371 72.9713 517.204C72.7973 517.037 72.7103 516.837 72.7103 516.602C72.7103 516.368 72.7973 516.167 72.9713 516C73.1489 515.833 73.3602 515.75 73.6052 515.75C73.8502 515.75 74.0597 515.833 74.2338 516C74.4113 516.167 74.5001 516.368 74.5001 516.602C74.5001 516.837 74.4113 517.037 74.2338 517.204C74.0597 517.371 73.8502 517.455 73.6052 517.455ZM78.9332 527.192C78.4148 527.192 77.9442 527.094 77.5217 526.899C77.0991 526.7 76.7635 526.414 76.5149 526.041C76.2663 525.665 76.142 525.21 76.142 524.678C76.142 524.209 76.2344 523.829 76.419 523.538C76.6037 523.243 76.8505 523.012 77.1594 522.845C77.4684 522.678 77.8093 522.554 78.1822 522.472C78.5586 522.387 78.9368 522.32 79.3168 522.27C79.8139 522.206 80.217 522.158 80.5259 522.126C80.8384 522.091 81.0657 522.032 81.2077 521.95C81.3533 521.869 81.4261 521.727 81.4261 521.524V521.482C81.4261 520.956 81.2823 520.548 80.9947 520.256C80.7106 519.965 80.2791 519.82 79.7003 519.82C79.1001 519.82 78.6296 519.951 78.2887 520.214C77.9478 520.477 77.7081 520.757 77.5696 521.055L76.3764 520.629C76.5895 520.132 76.8736 519.745 77.2287 519.468C77.5874 519.187 77.978 518.992 78.4006 518.882C78.8267 518.768 79.2457 518.712 79.6577 518.712C79.9205 518.712 80.2223 518.744 80.5632 518.808C80.9077 518.868 81.2397 518.994 81.5593 519.186C81.8825 519.377 82.1506 519.667 82.3636 520.054C82.5767 520.441 82.6832 520.96 82.6832 521.609V527H81.4261V525.892H81.3622C81.277 526.07 81.1349 526.26 80.9361 526.462C80.7372 526.664 80.4727 526.837 80.1424 526.979C79.8121 527.121 79.4091 527.192 78.9332 527.192ZM79.125 526.062C79.6222 526.062 80.0412 525.965 80.3821 525.77C80.7266 525.574 80.9858 525.322 81.1598 525.013C81.3374 524.704 81.4261 524.379 81.4261 524.038V522.888C81.3729 522.952 81.2557 523.01 81.0746 523.064C80.897 523.113 80.6911 523.158 80.4567 523.197C80.2259 523.232 80.0004 523.264 79.7802 523.293C79.5636 523.317 79.3878 523.339 79.2528 523.357C78.9261 523.399 78.6207 523.468 78.3366 523.564C78.0561 523.657 77.8288 523.797 77.6548 523.985C77.4844 524.17 77.3991 524.422 77.3991 524.741C77.3991 525.178 77.5607 525.509 77.8839 525.732C78.2106 525.952 78.6243 526.062 79.125 526.062ZM86.2348 516.091V527H84.9777V516.091H86.2348ZM88.5373 527V518.818H89.7944V527H88.5373ZM89.1765 517.455C88.9315 517.455 88.7202 517.371 88.5426 517.204C88.3686 517.037 88.2816 516.837 88.2816 516.602C88.2816 516.368 88.3686 516.167 88.5426 516C88.7202 515.833 88.9315 515.75 89.1765 515.75C89.4215 515.75 89.631 515.833 89.805 516C89.9826 516.167 90.0714 516.368 90.0714 516.602C90.0714 516.837 89.9826 517.037 89.805 517.204C89.631 517.371 89.4215 517.455 89.1765 517.455ZM95.6551 518.818V519.884H91.415V518.818H95.6551ZM92.6508 516.858H93.9079V524.656C93.9079 525.011 93.9594 525.278 94.0624 525.455C94.1689 525.629 94.3039 525.746 94.4672 525.807C94.6341 525.864 94.8099 525.892 94.9946 525.892C95.1331 525.892 95.2467 525.885 95.3355 525.871C95.4243 525.853 95.4953 525.839 95.5486 525.828L95.8042 526.957C95.719 526.989 95.6001 527.021 95.4474 527.053C95.2947 527.089 95.1011 527.107 94.8667 527.107C94.5116 527.107 94.1636 527.03 93.8227 526.877C93.4854 526.725 93.2048 526.492 92.9811 526.18C92.7609 525.867 92.6508 525.473 92.6508 524.997V516.858ZM98.3557 530.068C98.1427 530.068 97.9527 530.05 97.7858 530.015C97.6189 529.983 97.5035 529.951 97.4395 529.919L97.7591 528.811C98.0645 528.889 98.3344 528.918 98.5688 528.896C98.8032 528.875 99.0109 528.77 99.192 528.582C99.3767 528.397 99.5454 528.097 99.6981 527.682L99.9324 527.043L96.9069 518.818H98.2705L100.529 525.338H100.614L102.873 518.818H104.236L100.763 528.193C100.607 528.616 100.414 528.966 100.183 529.243C99.952 529.523 99.6839 529.731 99.3785 529.866C99.0766 530.001 98.7357 530.068 98.3557 530.068Z" fill="#2C2D2E" fill-opacity="0.4"/>
</g>
<rect x="24" y="562" width="345" height="56" rx="16" fill="#EDEFF2"/>
<g clip-path="url(#clip5_31_5581)">
<path d="M37.321 595V584.091H41.0071C41.8629 584.091 42.5625 584.245 43.1058 584.554C43.6527 584.86 44.0575 585.273 44.3203 585.795C44.5831 586.317 44.7145 586.9 44.7145 587.543C44.7145 588.185 44.5831 588.77 44.3203 589.295C44.0611 589.821 43.6598 590.24 43.1165 590.552C42.5732 590.861 41.8771 591.016 41.0284 591.016H38.3864V589.844H40.9858C41.5717 589.844 42.0423 589.743 42.3974 589.54C42.7525 589.338 43.0099 589.064 43.1697 588.72C43.3331 588.372 43.4148 587.979 43.4148 587.543C43.4148 587.106 43.3331 586.715 43.1697 586.371C43.0099 586.026 42.7507 585.756 42.392 585.561C42.0334 585.362 41.5575 585.263 40.9645 585.263H38.642V595H37.321ZM47.9292 584.091V595H46.6721V584.091H47.9292ZM52.6393 595.192C52.1208 595.192 51.6503 595.094 51.2277 594.899C50.8051 594.7 50.4695 594.414 50.221 594.041C49.9724 593.665 49.8481 593.21 49.8481 592.678C49.8481 592.209 49.9404 591.829 50.1251 591.538C50.3097 591.243 50.5566 591.012 50.8655 590.845C51.1744 590.678 51.5154 590.554 51.8882 590.472C52.2646 590.387 52.6428 590.32 53.0228 590.27C53.52 590.206 53.923 590.158 54.232 590.126C54.5445 590.091 54.7718 590.032 54.9138 589.95C55.0594 589.869 55.1322 589.727 55.1322 589.524V589.482C55.1322 588.956 54.9884 588.548 54.7007 588.256C54.4166 587.965 53.9852 587.82 53.4063 587.82C52.8062 587.82 52.3357 587.951 51.9948 588.214C51.6539 588.477 51.4142 588.757 51.2757 589.055L50.0825 588.629C50.2955 588.132 50.5796 587.745 50.9347 587.468C51.2934 587.187 51.684 586.992 52.1066 586.882C52.5328 586.768 52.9518 586.712 53.3637 586.712C53.6265 586.712 53.9284 586.744 54.2693 586.808C54.6137 586.868 54.9458 586.994 55.2654 587.186C55.5885 587.377 55.8566 587.667 56.0697 588.054C56.2828 588.441 56.3893 588.96 56.3893 589.609V595H55.1322V593.892H55.0683C54.983 594.07 54.841 594.26 54.6421 594.462C54.4433 594.664 54.1787 594.837 53.8485 594.979C53.5182 595.121 53.1151 595.192 52.6393 595.192ZM52.8311 594.062C53.3282 594.062 53.7472 593.965 54.0882 593.77C54.4326 593.574 54.6919 593.322 54.8659 593.013C55.0434 592.704 55.1322 592.379 55.1322 592.038V590.888C55.0789 590.952 54.9617 591.01 54.7806 591.064C54.6031 591.113 54.3971 591.158 54.1627 591.197C53.9319 591.232 53.7064 591.264 53.4862 591.293C53.2696 591.317 53.0938 591.339 52.9589 591.357C52.6322 591.399 52.3268 591.468 52.0427 591.564C51.7622 591.657 51.5349 591.797 51.3609 591.985C51.1904 592.17 51.1052 592.422 51.1052 592.741C51.1052 593.178 51.2668 593.509 51.5899 593.732C51.9166 593.952 52.3303 594.062 52.8311 594.062ZM62.0076 595.17C61.2406 595.17 60.5801 594.989 60.0261 594.627C59.4721 594.265 59.046 593.766 58.7477 593.13C58.4494 592.495 58.3002 591.768 58.3002 590.952C58.3002 590.121 58.4529 589.387 58.7583 588.752C59.0673 588.113 59.497 587.614 60.0474 587.255C60.6014 586.893 61.2477 586.712 61.9863 586.712C62.5616 586.712 63.0801 586.818 63.5417 587.031C64.0034 587.244 64.3816 587.543 64.6763 587.926C64.9711 588.31 65.1539 588.757 65.225 589.268H63.9679C63.872 588.896 63.6589 588.565 63.3287 588.278C63.002 587.987 62.5616 587.841 62.0076 587.841C61.5176 587.841 61.0879 587.969 60.7186 588.224C60.3528 588.477 60.0669 588.833 59.861 589.295C59.6586 589.753 59.5574 590.291 59.5574 590.909C59.5574 591.541 59.6568 592.092 59.8556 592.56C60.0581 593.029 60.3422 593.393 60.7079 593.652C61.0772 593.912 61.5105 594.041 62.0076 594.041C62.3343 594.041 62.6309 593.984 62.8972 593.871C63.1635 593.757 63.389 593.594 63.5737 593.381C63.7583 593.168 63.8897 592.912 63.9679 592.614H65.225C65.1539 593.097 64.9782 593.532 64.6976 593.919C64.4206 594.302 64.0531 594.608 63.595 594.835C63.1404 595.059 62.6113 595.17 62.0076 595.17ZM70.4931 595.17C69.7047 595.17 69.0247 594.996 68.4529 594.648C67.8848 594.297 67.4462 593.807 67.1373 593.178C66.8319 592.546 66.6792 591.811 66.6792 590.973C66.6792 590.135 66.8319 589.396 67.1373 588.757C67.4462 588.114 67.8759 587.614 68.4263 587.255C68.9803 586.893 69.6266 586.712 70.3652 586.712C70.7914 586.712 71.2122 586.783 71.6277 586.925C72.0431 587.067 72.4213 587.298 72.7623 587.617C73.1032 587.933 73.3748 588.352 73.5772 588.874C73.7797 589.396 73.8809 590.039 73.8809 590.803V591.335H67.574V590.249H72.6025C72.6025 589.787 72.5101 589.375 72.3255 589.013C72.1444 588.651 71.8851 588.365 71.5478 588.155C71.214 587.946 70.8198 587.841 70.3652 587.841C69.8645 587.841 69.4313 587.965 69.0655 588.214C68.7033 588.459 68.4245 588.778 68.2292 589.173C68.0339 589.567 67.9363 589.989 67.9363 590.44V591.165C67.9363 591.783 68.0428 592.306 68.2559 592.736C68.4725 593.162 68.7725 593.487 69.1561 593.711C69.5396 593.931 69.9853 594.041 70.4931 594.041C70.8233 594.041 71.1216 593.995 71.388 593.903C71.6578 593.807 71.8904 593.665 72.0858 593.477C72.2811 593.285 72.432 593.047 72.5385 592.763L73.753 593.104C73.6252 593.516 73.4103 593.878 73.1085 594.19C72.8066 594.499 72.4338 594.741 71.9899 594.915C71.546 595.085 71.0471 595.17 70.4931 595.17ZM83.3358 595.17C82.5971 595.17 81.949 594.995 81.3915 594.643C80.8375 594.292 80.4043 593.8 80.0918 593.168C79.7828 592.536 79.6284 591.797 79.6284 590.952C79.6284 590.099 79.7828 589.355 80.0918 588.72C80.4043 588.084 80.8375 587.591 81.3915 587.239C81.949 586.887 82.5971 586.712 83.3358 586.712C84.0744 586.712 84.7207 586.887 85.2747 587.239C85.8322 587.591 86.2654 588.084 86.5744 588.72C86.8869 589.355 87.0431 590.099 87.0431 590.952C87.0431 591.797 86.8869 592.536 86.5744 593.168C86.2654 593.8 85.8322 594.292 85.2747 594.643C84.7207 594.995 84.0744 595.17 83.3358 595.17ZM83.3358 594.041C83.8968 594.041 84.3585 593.897 84.7207 593.61C85.0829 593.322 85.351 592.944 85.525 592.475C85.699 592.006 85.786 591.499 85.786 590.952C85.786 590.405 85.699 589.895 85.525 589.423C85.351 588.951 85.0829 588.569 84.7207 588.278C84.3585 587.987 83.8968 587.841 83.3358 587.841C82.7747 587.841 82.313 587.987 81.9508 588.278C81.5886 588.569 81.3205 588.951 81.1465 589.423C80.9725 589.895 80.8855 590.405 80.8855 590.952C80.8855 591.499 80.9725 592.006 81.1465 592.475C81.3205 592.944 81.5886 593.322 81.9508 593.61C82.313 593.897 82.7747 594.041 83.3358 594.041ZM92.6056 586.818V587.884H88.195V586.818H92.6056ZM89.5161 595V585.689C89.5161 585.22 89.6262 584.83 89.8463 584.517C90.0665 584.205 90.3524 583.97 90.7039 583.814C91.0555 583.658 91.4266 583.58 91.8172 583.58C92.1262 583.58 92.3783 583.604 92.5736 583.654C92.7689 583.704 92.9145 583.75 93.0104 583.793L92.6482 584.879C92.5843 584.858 92.4955 584.831 92.3818 584.799C92.2718 584.767 92.1262 584.751 91.945 584.751C91.5296 584.751 91.2295 584.856 91.0448 585.066C90.8637 585.275 90.7732 585.582 90.7732 585.987V595H89.5161ZM98.5861 595V586.818H99.8006V588.054H99.8858C100.035 587.649 100.305 587.321 100.695 587.069C101.086 586.816 101.526 586.69 102.017 586.69C102.109 586.69 102.224 586.692 102.363 586.696C102.501 586.699 102.606 586.705 102.677 586.712V587.99C102.634 587.979 102.537 587.963 102.384 587.942C102.235 587.917 102.077 587.905 101.91 587.905C101.512 587.905 101.157 587.988 100.845 588.155C100.536 588.319 100.291 588.546 100.11 588.837C99.932 589.125 99.8432 589.453 99.8432 589.822V595H98.5861ZM107.349 595.17C106.56 595.17 105.88 594.996 105.308 594.648C104.74 594.297 104.302 593.807 103.993 593.178C103.687 592.546 103.535 591.811 103.535 590.973C103.535 590.135 103.687 589.396 103.993 588.757C104.302 588.114 104.731 587.614 105.282 587.255C105.836 586.893 106.482 586.712 107.221 586.712C107.647 586.712 108.068 586.783 108.483 586.925C108.899 587.067 109.277 587.298 109.618 587.617C109.959 587.933 110.23 588.352 110.433 588.874C110.635 589.396 110.736 590.039 110.736 590.803V591.335H104.43V590.249H109.458C109.458 589.787 109.366 589.375 109.181 589.013C109 588.651 108.741 588.365 108.403 588.155C108.069 587.946 107.675 587.841 107.221 587.841C106.72 587.841 106.287 587.965 105.921 588.214C105.559 588.459 105.28 588.778 105.085 589.173C104.889 589.567 104.792 589.989 104.792 590.44V591.165C104.792 591.783 104.898 592.306 105.111 592.736C105.328 593.162 105.628 593.487 106.012 593.711C106.395 593.931 106.841 594.041 107.349 594.041C107.679 594.041 107.977 593.995 108.243 593.903C108.513 593.807 108.746 593.665 108.941 593.477C109.137 593.285 109.287 593.047 109.394 592.763L110.608 593.104C110.481 593.516 110.266 593.878 109.964 594.19C109.662 594.499 109.289 594.741 108.845 594.915C108.401 595.085 107.903 595.17 107.349 595.17ZM118.444 588.651L117.315 588.97C117.244 588.782 117.139 588.599 117.001 588.422C116.866 588.24 116.681 588.091 116.447 587.974C116.212 587.857 115.912 587.798 115.546 587.798C115.046 587.798 114.628 587.914 114.295 588.145C113.964 588.372 113.799 588.661 113.799 589.013C113.799 589.325 113.913 589.572 114.14 589.753C114.367 589.934 114.722 590.085 115.205 590.206L116.42 590.504C117.151 590.682 117.697 590.953 118.055 591.319C118.414 591.681 118.593 592.148 118.593 592.72C118.593 593.189 118.458 593.608 118.188 593.977C117.922 594.347 117.549 594.638 117.07 594.851C116.59 595.064 116.033 595.17 115.397 595.17C114.563 595.17 113.872 594.989 113.325 594.627C112.778 594.265 112.432 593.736 112.286 593.04L113.48 592.741C113.593 593.182 113.808 593.512 114.124 593.732C114.444 593.952 114.861 594.062 115.376 594.062C115.962 594.062 116.427 593.938 116.771 593.69C117.119 593.437 117.294 593.136 117.294 592.784C117.294 592.5 117.194 592.262 116.995 592.07C116.796 591.875 116.491 591.729 116.079 591.634L114.715 591.314C113.966 591.136 113.416 590.861 113.064 590.488C112.716 590.112 112.542 589.641 112.542 589.077C112.542 588.615 112.672 588.207 112.931 587.852C113.194 587.496 113.551 587.218 114.002 587.015C114.456 586.813 114.971 586.712 115.546 586.712C116.356 586.712 116.992 586.889 117.453 587.244C117.919 587.599 118.249 588.068 118.444 588.651ZM120.486 595V586.818H121.743V595H120.486ZM121.125 585.455C120.88 585.455 120.668 585.371 120.491 585.204C120.317 585.037 120.23 584.837 120.23 584.602C120.23 584.368 120.317 584.167 120.491 584C120.668 583.833 120.88 583.75 121.125 583.75C121.37 583.75 121.579 583.833 121.753 584C121.931 584.167 122.02 584.368 122.02 584.602C122.02 584.837 121.931 585.037 121.753 585.204C121.579 585.371 121.37 585.455 121.125 585.455ZM127.135 595.17C126.453 595.17 125.851 594.998 125.329 594.654C124.807 594.306 124.398 593.816 124.104 593.184C123.809 592.548 123.662 591.797 123.662 590.93C123.662 590.071 123.809 589.325 124.104 588.693C124.398 588.061 124.809 587.573 125.334 587.228C125.86 586.884 126.467 586.712 127.156 586.712C127.689 586.712 128.109 586.8 128.418 586.978C128.731 587.152 128.969 587.351 129.132 587.575C129.299 587.795 129.429 587.976 129.521 588.118H129.627V584.091H130.885V595H129.67V593.743H129.521C129.429 593.892 129.297 594.08 129.127 594.308C128.956 594.531 128.713 594.732 128.397 594.909C128.081 595.083 127.66 595.17 127.135 595.17ZM127.305 594.041C127.809 594.041 128.235 593.91 128.583 593.647C128.931 593.381 129.196 593.013 129.377 592.544C129.558 592.072 129.649 591.527 129.649 590.909C129.649 590.298 129.56 589.764 129.382 589.306C129.205 588.844 128.942 588.485 128.594 588.23C128.246 587.971 127.816 587.841 127.305 587.841C126.772 587.841 126.328 587.978 125.973 588.251C125.622 588.521 125.357 588.888 125.18 589.354C125.006 589.815 124.919 590.334 124.919 590.909C124.919 591.491 125.007 592.021 125.185 592.496C125.366 592.969 125.632 593.345 125.984 593.626C126.339 593.903 126.779 594.041 127.305 594.041ZM136.792 595.17C136.004 595.17 135.324 594.996 134.752 594.648C134.184 594.297 133.745 593.807 133.436 593.178C133.131 592.546 132.978 591.811 132.978 590.973C132.978 590.135 133.131 589.396 133.436 588.757C133.745 588.114 134.175 587.614 134.725 587.255C135.279 586.893 135.925 586.712 136.664 586.712C137.09 586.712 137.511 586.783 137.926 586.925C138.342 587.067 138.72 587.298 139.061 587.617C139.402 587.933 139.674 588.352 139.876 588.874C140.078 589.396 140.18 590.039 140.18 590.803V591.335H133.873V590.249H138.901C138.901 589.787 138.809 589.375 138.624 589.013C138.443 588.651 138.184 588.365 137.847 588.155C137.513 587.946 137.119 587.841 136.664 587.841C136.163 587.841 135.73 587.965 135.364 588.214C135.002 588.459 134.723 588.778 134.528 589.173C134.333 589.567 134.235 589.989 134.235 590.44V591.165C134.235 591.783 134.342 592.306 134.555 592.736C134.771 593.162 135.071 593.487 135.455 593.711C135.838 593.931 136.284 594.041 136.792 594.041C137.122 594.041 137.42 593.995 137.687 593.903C137.957 593.807 138.189 593.665 138.385 593.477C138.58 593.285 138.731 593.047 138.837 592.763L140.052 593.104C139.924 593.516 139.709 593.878 139.407 594.19C139.105 594.499 138.733 594.741 138.289 594.915C137.845 595.085 137.346 595.17 136.792 595.17ZM143.349 590.078V595H142.092V586.818H143.306V588.097H143.413C143.605 587.681 143.896 587.347 144.287 587.095C144.677 586.839 145.181 586.712 145.799 586.712C146.353 586.712 146.838 586.825 147.254 587.053C147.669 587.276 147.992 587.617 148.223 588.075C148.454 588.53 148.569 589.105 148.569 589.801V595H147.312V589.886C147.312 589.244 147.145 588.743 146.811 588.384C146.478 588.022 146.02 587.841 145.437 587.841C145.036 587.841 144.677 587.928 144.361 588.102C144.049 588.276 143.802 588.53 143.621 588.864C143.44 589.197 143.349 589.602 143.349 590.078ZM154.19 595.17C153.423 595.17 152.763 594.989 152.209 594.627C151.655 594.265 151.229 593.766 150.93 593.13C150.632 592.495 150.483 591.768 150.483 590.952C150.483 590.121 150.636 589.387 150.941 588.752C151.25 588.113 151.68 587.614 152.23 587.255C152.784 586.893 153.43 586.712 154.169 586.712C154.744 586.712 155.263 586.818 155.724 587.031C156.186 587.244 156.564 587.543 156.859 587.926C157.154 588.31 157.337 588.757 157.408 589.268H156.15C156.055 588.896 155.842 588.565 155.511 588.278C155.185 587.987 154.744 587.841 154.19 587.841C153.7 587.841 153.271 587.969 152.901 588.224C152.535 588.477 152.25 588.833 152.044 589.295C151.841 589.753 151.74 590.291 151.74 590.909C151.74 591.541 151.839 592.092 152.038 592.56C152.241 593.029 152.525 593.393 152.891 593.652C153.26 593.912 153.693 594.041 154.19 594.041C154.517 594.041 154.813 593.984 155.08 593.871C155.346 593.757 155.572 593.594 155.756 593.381C155.941 593.168 156.072 592.912 156.15 592.614H157.408C157.337 593.097 157.161 593.532 156.88 593.919C156.603 594.302 156.236 594.608 155.778 594.835C155.323 595.059 154.794 595.17 154.19 595.17ZM162.676 595.17C161.887 595.17 161.207 594.996 160.636 594.648C160.067 594.297 159.629 593.807 159.32 593.178C159.014 592.546 158.862 591.811 158.862 590.973C158.862 590.135 159.014 589.396 159.32 588.757C159.629 588.114 160.059 587.614 160.609 587.255C161.163 586.893 161.809 586.712 162.548 586.712C162.974 586.712 163.395 586.783 163.81 586.925C164.226 587.067 164.604 587.298 164.945 587.617C165.286 587.933 165.557 588.352 165.76 588.874C165.962 589.396 166.063 590.039 166.063 590.803V591.335H159.757V590.249H164.785C164.785 589.787 164.693 589.375 164.508 589.013C164.327 588.651 164.068 588.365 163.73 588.155C163.397 587.946 163.002 587.841 162.548 587.841C162.047 587.841 161.614 587.965 161.248 588.214C160.886 588.459 160.607 588.778 160.412 589.173C160.217 589.567 160.119 589.989 160.119 590.44V591.165C160.119 591.783 160.225 592.306 160.438 592.736C160.655 593.162 160.955 593.487 161.339 593.711C161.722 593.931 162.168 594.041 162.676 594.041C163.006 594.041 163.304 593.995 163.571 593.903C163.84 593.807 164.073 593.665 164.268 593.477C164.464 593.285 164.615 593.047 164.721 592.763L165.936 593.104C165.808 593.516 165.593 593.878 165.291 594.19C164.989 594.499 164.616 594.741 164.172 594.915C163.729 595.085 163.23 595.17 162.676 595.17Z" fill="#2C2D2E" fill-opacity="0.4"/>
</g>
<circle cx="196" cy="131" r="48" fill="#EDEFF2"/>
<circle cx="230" cy="160" r="18" fill="white" stroke="#CCCED0" stroke-width="2"/>
<g clip-path="url(#clip6_31_5581)">
<path d="M239.167 165.833C239.167 166.275 238.991 166.699 238.679 167.012C238.366 167.324 237.942 167.5 237.5 167.5H222.5C222.058 167.5 221.634 167.324 221.322 167.012C221.009 166.699 220.833 166.275 220.833 165.833V156.667C220.833 156.225 221.009 155.801 221.322 155.488C221.634 155.176 222.058 155 222.5 155H225.833L227.5 152.5H232.5L234.167 155H237.5C237.942 155 238.366 155.176 238.679 155.488C238.991 155.801 239.167 156.225 239.167 156.667V165.833Z" fill="black" stroke="black" stroke-width="2" stroke-linecap="round" stroke-linejoin="round"/>
<path d="M230 165C232.209 165 234 163.209 234 161C234 158.791 232.209 157 230 157C227.791 157 226 158.791 226 161C226 163.209 227.791 165 230 165Z" fill="white"/>
<path d="M230 163C231.105 163 232 162.105 232 161C232 159.895 231.105 159 230 159C228.895 159 228 159.895 228 161C228 162.105 228.895 163 230 163Z" fill="black"/>
</g>
<rect x="24" y="756" width="345" height="56" rx="28" fill="#0066FF"/>
<path d="M187.966 777.909V791H186.432L179.298 780.722H179.17V791H177.585V777.909H179.119L186.278 788.213H186.406V777.909H187.966ZM195.05 791.205C194.104 791.205 193.288 790.996 192.602 790.578C191.92 790.156 191.394 789.568 191.023 788.814C190.656 788.055 190.473 787.173 190.473 786.168C190.473 785.162 190.656 784.276 191.023 783.509C191.394 782.737 191.909 782.136 192.57 781.706C193.235 781.271 194.01 781.054 194.896 781.054C195.408 781.054 195.913 781.139 196.411 781.31C196.91 781.48 197.364 781.757 197.773 782.141C198.182 782.52 198.508 783.023 198.751 783.649C198.994 784.276 199.115 785.047 199.115 785.963V786.602H191.547V785.298H197.581C197.581 784.744 197.47 784.25 197.249 783.815C197.031 783.381 196.72 783.038 196.316 782.786C195.915 782.535 195.442 782.409 194.896 782.409C194.296 782.409 193.776 782.558 193.337 782.857C192.902 783.151 192.568 783.534 192.333 784.007C192.099 784.48 191.982 784.987 191.982 785.528V786.398C191.982 787.139 192.11 787.768 192.365 788.283C192.625 788.795 192.985 789.185 193.445 789.453C193.906 789.717 194.441 789.849 195.05 789.849C195.446 789.849 195.804 789.794 196.124 789.683C196.448 789.568 196.727 789.398 196.961 789.172C197.195 788.942 197.377 788.656 197.504 788.315L198.962 788.724C198.808 789.219 198.551 789.653 198.188 790.028C197.826 790.399 197.379 790.689 196.846 790.898C196.313 791.102 195.715 791.205 195.05 791.205ZM202.271 781.182L204.624 785.196L206.976 781.182H208.714L205.544 786.091L208.714 791H206.976L204.624 787.19L202.271 791H200.533L203.652 786.091L200.533 781.182H202.271ZM215.137 781.182V782.46H210.049V781.182H215.137ZM211.532 778.83H213.04V788.188C213.04 788.614 213.102 788.933 213.226 789.146C213.354 789.355 213.515 789.496 213.711 789.568C213.912 789.636 214.123 789.67 214.344 789.67C214.51 789.67 214.647 789.662 214.753 789.645C214.86 789.624 214.945 789.607 215.009 789.594L215.316 790.949C215.214 790.987 215.071 791.026 214.888 791.064C214.704 791.107 214.472 791.128 214.191 791.128C213.765 791.128 213.347 791.036 212.938 790.853C212.533 790.67 212.197 790.391 211.928 790.016C211.664 789.641 211.532 789.168 211.532 788.597V778.83Z" fill="white"/>
</g>
<defs>
<clipPath id="clip0_31_5581">
<rect width="393" height="852" rx="32" fill="white"/>
</clipPath>
<clipPath id="clip1_31_5581">
<rect width="88" height="20" fill="white" transform="translate(36 308)"/>
</clipPath>
<clipPath id="clip2_31_5581">
<rect width="75" height="20" fill="white" transform="translate(36 376)"/>
</clipPath>
<clipPath id="clip3_31_5581">
<rect width="102" height="20" fill="white" transform="translate(36 444)"/>
</clipPath>
<clipPath id="clip4_31_5581">
<rect width="69" height="20" fill="white" transform="translate(36 512)"/>
</clipPath>
<clipPath id="clip5_31_5581">
<rect width="131" height="20" fill="white" transform="translate(36 580)"/>
</clipPath>
<clipPath id="clip6_31_5581">
<rect width="20" height="20" fill="white" transform="translate(220 150)"/>
</clipPath>
</defs>
</svg>
